solid OpenSCAD_Model
  facet normal -0.363208 0.931708 0
    outer loop
      vertex -16.3971 -0.437444 1
      vertex -16.3971 -0.437444 0
      vertex -18.0622 -1.08656 1
    endloop
  endfacet
  facet normal -0.363208 0.931708 0
    outer loop
      vertex -18.0622 -1.08656 1
      vertex -16.3971 -0.437444 0
      vertex -18.0622 -1.08656 0
    endloop
  endfacet
  facet normal -0.995634 -0.0933407 0
    outer loop
      vertex -17.8929 -2.89278 1
      vertex -18.0622 -1.08656 1
      vertex -17.8929 -2.89278 0
    endloop
  endfacet
  facet normal -0.995634 -0.0933407 0
    outer loop
      vertex -17.8929 -2.89278 0
      vertex -18.0622 -1.08656 1
      vertex -18.0622 -1.08656 0
    endloop
  endfacet
  facet normal 0 0 -1
    outer loop
      vertex -13.0951 7.09789 0
      vertex -14.8731 1.17122 0
      vertex -13.9982 6.42056 0
    endloop
  endfacet
  facet normal 0 0 -1
    outer loop
      vertex -15.1271 6.27944 0
      vertex -14.9013 2.30011 0
      vertex -16.9051 6.33589 0
    endloop
  endfacet
  facet normal 0 0 -1
    outer loop
      vertex -16.9051 6.33589 0
      vertex -15.494 3.28789 0
      vertex -17.4696 4.61433 0
    endloop
  endfacet
  facet normal 0 0 -1
    outer loop
      vertex -14.9013 2.30011 0
      vertex -15.494 3.28789 0
      vertex -16.9051 6.33589 0
    endloop
  endfacet
  facet normal 0 0 -1
    outer loop
      vertex -14.8731 1.17122 0
      vertex -14.9013 2.30011 0
      vertex -13.9982 6.42056 0
    endloop
  endfacet
  facet normal 0 0 -1
    outer loop
      vertex -14.9013 2.30011 0
      vertex -15.1271 6.27944 0
      vertex -13.9982 6.42056 0
    endloop
  endfacet
  facet normal 0 0 -1
    outer loop
      vertex -10.1318 11.557 0
      vertex -14.8731 1.17122 0
      vertex -11.2324 11.8674 0
    endloop
  endfacet
  facet normal 0 0 -1
    outer loop
      vertex -14.8731 1.17122 0
      vertex -13.0951 7.09789 0
      vertex -12.6436 8.14211 0
    endloop
  endfacet
  facet normal 0 0 -1
    outer loop
      vertex -11.2324 11.8674 0
      vertex -12.6436 8.14211 0
      vertex -12.8129 12.6577 0
    endloop
  endfacet
  facet normal 0 0 -1
    outer loop
      vertex -12.8129 12.6577 0
      vertex -12.7847 9.271 0
      vertex -14.0264 11.3312 0
    endloop
  endfacet
  facet normal 0 0 -1
    outer loop
      vertex -12.6436 8.14211 0
      vertex -12.7847 9.271 0
      vertex -12.8129 12.6577 0
    endloop
  endfacet
  facet normal 0 0 -1
    outer loop
      vertex -14.8731 1.17122 0
      vertex -12.6436 8.14211 0
      vertex -11.2324 11.8674 0
    endloop
  endfacet
  facet normal 0 0 -1
    outer loop
      vertex -8.18444 12.573 0
      vertex -14.8731 1.17122 0
      vertex -9.03111 11.811 0
    endloop
  endfacet
  facet normal 0 0 -1
    outer loop
      vertex -14.8731 1.17122 0
      vertex -10.1318 11.557 0
      vertex -9.03111 11.811 0
    endloop
  endfacet
  facet normal 0 0 -1
    outer loop
      vertex -15.4376 0.155222 0
      vertex -14.8731 1.17122 0
      vertex -8.18444 12.573 0
    endloop
  endfacet
  facet normal 0 0 -1
    outer loop
      vertex -5.39044 15.3952 0
      vertex -8.18444 12.573 0
      vertex -6.51933 16.7781 0
    endloop
  endfacet
  facet normal 0 0 -1
    outer loop
      vertex -6.51933 16.7781 0
      vertex -7.84578 13.6737 0
      vertex -8.18444 16.0443 0
    endloop
  endfacet
  facet normal 0 0 -1
    outer loop
      vertex -8.18444 12.573 0
      vertex -7.84578 13.6737 0
      vertex -6.51933 16.7781 0
    endloop
  endfacet
  facet normal 0 0 -1
    outer loop
      vertex -15.4376 0.155222 0
      vertex -8.18444 12.573 0
      vertex -5.39044 15.3952 0
    endloop
  endfacet
  facet normal 0 0 -1
    outer loop
      vertex -15.4376 0.155222 0
      vertex -5.39044 15.3952 0
      vertex -4.51556 14.6614 0
    endloop
  endfacet
  facet normal 0 0 -1
    outer loop
      vertex -10.9625 4.88084 0
      vertex -15.4376 0.155222 0
      vertex -9.7082 7.05342 0
    endloop
  endfacet
  facet normal 0 0 -1
    outer loop
      vertex -9.7082 7.05342 0
      vertex -3.41489 14.4357 0
      vertex -8.02957 8.91774 0
    endloop
  endfacet
  facet normal 0 0 -1
    outer loop
      vertex -1.58044 15.6774 0
      vertex -0.903111 17.9634 0
      vertex 0.903111 17.9634 0
    endloop
  endfacet
  facet normal 0 0 -1
    outer loop
      vertex -1.58044 15.6774 0
      vertex 0.903111 17.9634 0
      vertex -2.31422 14.8308 0
    endloop
  endfacet
  facet normal 0 0 -1
    outer loop
      vertex -3.7082 11.4127 0
      vertex 0.903111 17.9634 0
      vertex 1.38289 16.2701 0
    endloop
  endfacet
  facet normal 0 0 -1
    outer loop
      vertex -8.02957 8.91774 0
      vertex 0.903111 17.9634 0
      vertex -6 10.3923 0
    endloop
  endfacet
  facet normal 0 0 -1
    outer loop
      vertex -3.7082 11.4127 0
      vertex 1.38289 16.2701 0
      vertex 1.86267 15.2259 0
    endloop
  endfacet
  facet normal 0 0 -1
    outer loop
      vertex -3.7082 11.4127 0
      vertex 1.86267 15.2259 0
      vertex -1.25434 11.9343 0
    endloop
  endfacet
  facet normal 0 0 -1
    outer loop
      vertex 4.96711 14.9437 0
      vertex 6.51933 16.7781 0
      vertex 8.18444 16.0443 0
    endloop
  endfacet
  facet normal 0 0 -1
    outer loop
      vertex -1.25434 11.9343 0
      vertex 2.794 14.5768 0
      vertex 3.95111 14.4639 0
    endloop
  endfacet
  facet normal 0 0 -1
    outer loop
      vertex -1.25434 11.9343 0
      vertex 4.96711 14.9437 0
      vertex 1.25434 11.9343 0
    endloop
  endfacet
  facet normal 0 0 -1
    outer loop
      vertex 1.25434 11.9343 0
      vertex 8.18444 16.0443 0
      vertex 7.93044 14.2663 0
    endloop
  endfacet
  facet normal 0 0 -1
    outer loop
      vertex 1.25434 11.9343 0
      vertex 7.93044 14.2663 0
      vertex 3.7082 11.4127 0
    endloop
  endfacet
  facet normal 0 0 -1
    outer loop
      vertex 3.7082 11.4127 0
      vertex 7.93044 13.1374 0
      vertex 8.52311 12.1497 0
    endloop
  endfacet
  facet normal 0 0 -1
    outer loop
      vertex 3.7082 11.4127 0
      vertex 8.52311 12.1497 0
      vertex 6 10.3923 0
    endloop
  endfacet
  facet normal 0 0 -1
    outer loop
      vertex 12.8129 12.6577 0
      vertex 14.0264 11.3312 0
      vertex 10.668 11.6417 0
    endloop
  endfacet
  facet normal 0 0 -1
    outer loop
      vertex 6 10.3923 0
      vertex 9.53911 11.6134 0
      vertex 10.668 11.6417 0
    endloop
  endfacet
  facet normal 0 0 -1
    outer loop
      vertex 6 10.3923 0
      vertex 10.668 11.6417 0
      vertex 14.0264 11.3312 0
    endloop
  endfacet
  facet normal 0 0 -1
    outer loop
      vertex 8.02957 8.91774 0
      vertex 13.0951 9.80722 0
      vertex 12.6436 8.763 0
    endloop
  endfacet
  facet normal 0 0 -1
    outer loop
      vertex 8.02957 8.91774 0
      vertex 12.6436 8.763 0
      vertex 9.7082 7.05342 0
    endloop
  endfacet
  facet normal 0 0 -1
    outer loop
      vertex 9.7082 7.05342 0
      vertex 12.7847 7.63411 0
      vertex 13.462 6.731 0
    endloop
  endfacet
  facet normal 0 0 -1
    outer loop
      vertex 9.7082 7.05342 0
      vertex 13.462 6.731 0
      vertex 14.5062 6.27944 0
    endloop
  endfacet
  facet normal 0 0 -1
    outer loop
      vertex 14.5062 6.27944 0
      vertex 16.9051 6.33589 0
      vertex 10.9625 4.88084 0
    endloop
  endfacet
  facet normal 0 0 -1
    outer loop
      vertex 3.7082 -11.4127 0
      vertex 5.36222 -14.2099 0
      vertex 1.25434 -11.9343 0
    endloop
  endfacet
  facet normal 0 0 -1
    outer loop
      vertex 3.7082 -11.4127 0
      vertex 6.35 -13.6172 0
      vertex 5.36222 -14.2099 0
    endloop
  endfacet
  facet normal 0 0 -1
    outer loop
      vertex 3.7082 -11.4127 0
      vertex 7.47889 -13.589 0
      vertex 6.35 -13.6172 0
    endloop
  endfacet
  facet normal 0 0 -1
    outer loop
      vertex 8.02957 -8.91774 0
      vertex 10.5551 -11.9239 0
      vertex 6 -10.3923 0
    endloop
  endfacet
  facet normal 0 0 -1
    outer loop
      vertex 0.310444 -15.0283 0
      vertex -3.7082 -11.4127 0
      vertex 1.35467 -15.4799 0
    endloop
  endfacet
  facet normal 0 0 -1
    outer loop
      vertex 11.3453 -14.1817 0
      vertex 9.906 -15.2541 0
      vertex 8.49489 -14.1534 0
    endloop
  endfacet
  facet normal 0 0 -1
    outer loop
      vertex 11.3453 -14.1817 0
      vertex 8.49489 -14.1534 0
      vertex 7.47889 -13.589 0
    endloop
  endfacet
  facet normal 0 0 -1
    outer loop
      vertex -1.25434 -11.9343 0
      vertex 4.62844 -17.5966 0
      vertex 1.35467 -15.4799 0
    endloop
  endfacet
  facet normal 0 0 -1
    outer loop
      vertex 4.62844 -17.5966 0
      vertex 2.87867 -17.9634 0
      vertex 2.032 -16.383 0
    endloop
  endfacet
  facet normal 0 0 -1
    outer loop
      vertex 4.62844 -17.5966 0
      vertex 2.032 -16.383 0
      vertex 1.35467 -15.4799 0
    endloop
  endfacet
  facet normal 0 0 -1
    outer loop
      vertex -5.02356 -14.6897 0
      vertex -2.87867 -17.9634 0
      vertex -4.76956 -15.8186 0
    endloop
  endfacet
  facet normal 0 0 -1
    outer loop
      vertex -8.02957 -8.91774 0
      vertex -1.74978 -15.8468 0
      vertex -16.3971 -0.437444 0
    endloop
  endfacet
  facet normal 0 0 -1
    outer loop
      vertex -17.8929 -2.89278 0
      vertex -16.3971 -0.437444 0
      vertex -15.5222 -3.31611 0
    endloop
  endfacet
  facet normal 0 0 -1
    outer loop
      vertex -2.87867 -17.9634 0
      vertex -4.62844 -17.5966 0
      vertex -4.76956 -15.8186 0
    endloop
  endfacet
  facet normal 0 0 -1
    outer loop
      vertex -1.74978 -15.8468 0
      vertex -2.87867 -17.9634 0
      vertex -5.02356 -14.6897 0
    endloop
  endfacet
  facet normal 0 0 -1
    outer loop
      vertex -1.74978 -15.8468 0
      vertex -5.02356 -14.6897 0
      vertex -16.3971 -0.437444 0
    endloop
  endfacet
  facet normal 0 0 -1
    outer loop
      vertex -6.88622 -13.5326 0
      vertex -16.3971 -0.437444 0
      vertex -5.78556 -13.8712 0
    endloop
  endfacet
  facet normal 0 0 -1
    outer loop
      vertex -5.02356 -14.6897 0
      vertex -5.78556 -13.8712 0
      vertex -16.3971 -0.437444 0
    endloop
  endfacet
  facet normal 0 0 -1
    outer loop
      vertex -7.98689 -13.7866 0
      vertex -16.3971 -0.437444 0
      vertex -6.88622 -13.5326 0
    endloop
  endfacet
  facet normal 0 0 -1
    outer loop
      vertex -10.7244 -12.5166 0
      vertex -9.906 -15.2541 0
      vertex -11.3453 -14.1817 0
    endloop
  endfacet
  facet normal 0 0 -1
    outer loop
      vertex -14.5909 -3.96522 0
      vertex -16.3971 -0.437444 0
      vertex -10.8938 -10.3152 0
    endloop
  endfacet
  facet normal 0 0 -1
    outer loop
      vertex 11.7378 2.49494 0
      vertex 14.8167 1.76389 0
      vertex 15.0707 0.663222 0
    endloop
  endfacet
  facet normal 0 0 -1
    outer loop
      vertex -7.98689 -13.7866 0
      vertex -9.906 -15.2541 0
      vertex -10.7244 -12.5166 0
    endloop
  endfacet
  facet normal 0 0 -1
    outer loop
      vertex -7.98689 -13.7866 0
      vertex -10.7244 -12.5166 0
      vertex -10.5269 -11.3877 0
    endloop
  endfacet
  facet normal 0 0 -1
    outer loop
      vertex -7.98689 -13.7866 0
      vertex -10.5269 -11.3877 0
      vertex -10.8938 -10.3152 0
    endloop
  endfacet
  facet normal 0 0 -1
    outer loop
      vertex -7.98689 -13.7866 0
      vertex -10.8938 -10.3152 0
      vertex -16.3971 -0.437444 0
    endloop
  endfacet
  facet normal 0 0 -1
    outer loop
      vertex -15.5222 -3.31611 0
      vertex -16.3971 -0.437444 0
      vertex -14.5909 -3.96522 0
    endloop
  endfacet
  facet normal 0 0 -1
    outer loop
      vertex -11.7404 -9.58144 0
      vertex -14.5909 -3.96522 0
      vertex -10.8938 -10.3152 0
    endloop
  endfacet
  facet normal 0 0 -1
    outer loop
      vertex -14.1111 -5.00944 0
      vertex -12.8693 -9.35567 0
      vertex -14.1958 -6.13833 0
    endloop
  endfacet
  facet normal 0 0 -1
    outer loop
      vertex -14.8731 -7.06967 0
      vertex -15.2118 -9.92011 0
      vertex -16.1149 -8.33967 0
    endloop
  endfacet
  facet normal 0 0 -1
    outer loop
      vertex 10.9625 4.88084 0
      vertex 15.1553 2.86456 0
      vertex 11.7378 2.49494 0
    endloop
  endfacet
  facet normal 0 0 -1
    outer loop
      vertex 11.7378 2.49494 0
      vertex 15.0707 0.663222 0
      vertex 12 0 0
    endloop
  endfacet
  facet normal 0 0 -1
    outer loop
      vertex -15.2118 -9.92011 0
      vertex -14.8731 -7.06967 0
      vertex -14.1958 -6.13833 0
    endloop
  endfacet
  facet normal 0 0 -1
    outer loop
      vertex -14.5909 -3.96522 0
      vertex -11.7404 -9.58144 0
      vertex -14.1111 -5.00944 0
    endloop
  endfacet
  facet normal 0 0 -1
    outer loop
      vertex -12.8693 -9.35567 0
      vertex -14.1111 -5.00944 0
      vertex -11.7404 -9.58144 0
    endloop
  endfacet
  facet normal 0 0 -1
    outer loop
      vertex 10.9625 4.88084 0
      vertex 15.9738 3.62656 0
      vertex 15.1553 2.86456 0
    endloop
  endfacet
  facet normal 0 0 -1
    outer loop
      vertex -15.2118 -9.92011 0
      vertex -14.1958 -6.13833 0
      vertex -12.8693 -9.35567 0
    endloop
  endfacet
  facet normal 0 0 -1
    outer loop
      vertex 8.02957 -8.91774 0
      vertex 10.6398 -10.795 0
      vertex 10.5551 -11.9239 0
    endloop
  endfacet
  facet normal 0 0 -1
    outer loop
      vertex -10.9625 -4.88084 0
      vertex -16.3971 -0.437444 0
      vertex -11.7378 -2.49494 0
    endloop
  endfacet
  facet normal 0 0 -1
    outer loop
      vertex -9.7082 -7.05342 0
      vertex -16.3971 -0.437444 0
      vertex -10.9625 -4.88084 0
    endloop
  endfacet
  facet normal 0 0 -1
    outer loop
      vertex -6 -10.3923 0
      vertex -0.818444 -15.1694 0
      vertex -1.74978 -15.8468 0
    endloop
  endfacet
  facet normal 0 0 -1
    outer loop
      vertex -9.7082 -7.05342 0
      vertex -8.02957 -8.91774 0
      vertex -16.3971 -0.437444 0
    endloop
  endfacet
  facet normal 0 0 -1
    outer loop
      vertex -3.7082 -11.4127 0
      vertex -0.818444 -15.1694 0
      vertex -6 -10.3923 0
    endloop
  endfacet
  facet normal 0 0 -1
    outer loop
      vertex -6 -10.3923 0
      vertex -1.74978 -15.8468 0
      vertex -8.02957 -8.91774 0
    endloop
  endfacet
  facet normal 0 0 -1
    outer loop
      vertex 4.826 -15.1977 0
      vertex 4.62844 -17.5966 0
      vertex -1.25434 -11.9343 0
    endloop
  endfacet
  facet normal 0 0 -1
    outer loop
      vertex -3.7082 -11.4127 0
      vertex 0.310444 -15.0283 0
      vertex -0.818444 -15.1694 0
    endloop
  endfacet
  facet normal 0 0 -1
    outer loop
      vertex 5.36222 -14.2099 0
      vertex 4.826 -15.1977 0
      vertex 1.25434 -11.9343 0
    endloop
  endfacet
  facet normal 0 0 -1
    outer loop
      vertex -1.25434 -11.9343 0
      vertex 1.35467 -15.4799 0
      vertex -3.7082 -11.4127 0
    endloop
  endfacet
  facet normal 0 0 -1
    outer loop
      vertex 11.3453 -14.1817 0
      vertex 7.47889 -13.589 0
      vertex 3.7082 -11.4127 0
    endloop
  endfacet
  facet normal 0 0 -1
    outer loop
      vertex 10.5551 -11.9239 0
      vertex 11.3453 -14.1817 0
      vertex 6 -10.3923 0
    endloop
  endfacet
  facet normal 0 0 -1
    outer loop
      vertex 9.7082 -7.05342 0
      vertex 11.2889 -9.86367 0
      vertex 8.02957 -8.91774 0
    endloop
  endfacet
  facet normal 0 0 -1
    outer loop
      vertex 11.2889 -9.86367 0
      vertex 10.6398 -10.795 0
      vertex 8.02957 -8.91774 0
    endloop
  endfacet
  facet normal 0 0 -1
    outer loop
      vertex 6 -10.3923 0
      vertex 11.3453 -14.1817 0
      vertex 3.7082 -11.4127 0
    endloop
  endfacet
  facet normal 0 0 -1
    outer loop
      vertex 16.1149 -8.33967 0
      vertex 15.2118 -9.92011 0
      vertex 9.7082 -7.05342 0
    endloop
  endfacet
  facet normal 0 0 -1
    outer loop
      vertex 1.25434 -11.9343 0
      vertex 4.826 -15.1977 0
      vertex -1.25434 -11.9343 0
    endloop
  endfacet
  facet normal 0 0 -1
    outer loop
      vertex 14.3087 -4.41678 0
      vertex 14.0829 -5.54567 0
      vertex 10.9625 -4.88084 0
    endloop
  endfacet
  facet normal 0 0 -1
    outer loop
      vertex 17.8929 -2.89278 0
      vertex 16.1149 -3.20322 0
      vertex 11.7378 -2.49494 0
    endloop
  endfacet
  facet normal 0 0 -1
    outer loop
      vertex 15.0707 0.663222 0
      vertex 15.8609 -0.183444 0
      vertex 12 0 0
    endloop
  endfacet
  facet normal 0 0 -1
    outer loop
      vertex 15.1553 2.86456 0
      vertex 14.8167 1.76389 0
      vertex 11.7378 2.49494 0
    endloop
  endfacet
  facet normal 0 0 -1
    outer loop
      vertex 9.7082 7.05342 0
      vertex 14.5062 6.27944 0
      vertex 10.9625 4.88084 0
    endloop
  endfacet
  facet normal 0 0 -1
    outer loop
      vertex 16.9051 6.33589 0
      vertex 17.4696 4.61433 0
      vertex 10.9625 4.88084 0
    endloop
  endfacet
  facet normal 0 0 -1
    outer loop
      vertex -12 0 0
      vertex -16.3971 -0.437444 0
      vertex -15.4376 0.155222 0
    endloop
  endfacet
  facet normal 0 0 -1
    outer loop
      vertex 12.6436 8.763 0
      vertex 12.7847 7.63411 0
      vertex 9.7082 7.05342 0
    endloop
  endfacet
  facet normal 0 0 -1
    outer loop
      vertex 6 10.3923 0
      vertex 14.0264 11.3312 0
      vertex 8.02957 8.91774 0
    endloop
  endfacet
  facet normal 0 0 -1
    outer loop
      vertex 14.0264 11.3312 0
      vertex 13.0951 9.80722 0
      vertex 8.02957 8.91774 0
    endloop
  endfacet
  facet normal 0 0 -1
    outer loop
      vertex 8.52311 12.1497 0
      vertex 9.53911 11.6134 0
      vertex 6 10.3923 0
    endloop
  endfacet
  facet normal 0 0 -1
    outer loop
      vertex 7.93044 14.2663 0
      vertex 7.93044 13.1374 0
      vertex 3.7082 11.4127 0
    endloop
  endfacet
  facet normal 0 0 -1
    outer loop
      vertex 4.96711 14.9437 0
      vertex 8.18444 16.0443 0
      vertex 1.25434 11.9343 0
    endloop
  endfacet
  facet normal 0 0 -1
    outer loop
      vertex 1.86267 15.2259 0
      vertex 2.794 14.5768 0
      vertex -1.25434 11.9343 0
    endloop
  endfacet
  facet normal 0 0 -1
    outer loop
      vertex -6 10.3923 0
      vertex 0.903111 17.9634 0
      vertex -3.7082 11.4127 0
    endloop
  endfacet
  facet normal 0 0 -1
    outer loop
      vertex -8.02957 8.91774 0
      vertex -2.31422 14.8308 0
      vertex 0.903111 17.9634 0
    endloop
  endfacet
  facet normal 0 0 -1
    outer loop
      vertex -3.41489 14.4357 0
      vertex -2.31422 14.8308 0
      vertex -8.02957 8.91774 0
    endloop
  endfacet
  facet normal 0 0 -1
    outer loop
      vertex -4.51556 14.6614 0
      vertex -3.41489 14.4357 0
      vertex -9.7082 7.05342 0
    endloop
  endfacet
  facet normal 0 0 -1
    outer loop
      vertex -4.51556 14.6614 0
      vertex -9.7082 7.05342 0
      vertex -15.4376 0.155222 0
    endloop
  endfacet
  facet normal 0 0 -1
    outer loop
      vertex -11.7378 2.49494 0
      vertex -15.4376 0.155222 0
      vertex -10.9625 4.88084 0
    endloop
  endfacet
  facet normal 0 0 -1
    outer loop
      vertex -1.25434 11.9343 0
      vertex 3.95111 14.4639 0
      vertex 4.96711 14.9437 0
    endloop
  endfacet
  facet normal 0 0 -1
    outer loop
      vertex -12 0 0
      vertex -15.4376 0.155222 0
      vertex -11.7378 2.49494 0
    endloop
  endfacet
  facet normal 0 0 -1
    outer loop
      vertex 10.9625 4.88084 0
      vertex 17.4696 4.61433 0
      vertex 15.9738 3.62656 0
    endloop
  endfacet
  facet normal 0 0 -1
    outer loop
      vertex -11.7378 -2.49494 0
      vertex -16.3971 -0.437444 0
      vertex -12 0 0
    endloop
  endfacet
  facet normal 0 0 -1
    outer loop
      vertex -16.3971 -0.437444 0
      vertex -17.8929 -2.89278 0
      vertex -18.0622 -1.08656 0
    endloop
  endfacet
  facet normal 0 0 -1
    outer loop
      vertex 12 0 0
      vertex 15.8609 -0.183444 0
      vertex 18.0622 -1.08656 0
    endloop
  endfacet
  facet normal 0 0 -1
    outer loop
      vertex 12 0 0
      vertex 18.0622 -1.08656 0
      vertex 17.8929 -2.89278 0
    endloop
  endfacet
  facet normal 0 0 -1
    outer loop
      vertex 12 0 0
      vertex 17.8929 -2.89278 0
      vertex 11.7378 -2.49494 0
    endloop
  endfacet
  facet normal 0 0 -1
    outer loop
      vertex 11.7378 -2.49494 0
      vertex 16.1149 -3.20322 0
      vertex 15.0424 -3.57011 0
    endloop
  endfacet
  facet normal 0 0 -1
    outer loop
      vertex 11.7378 -2.49494 0
      vertex 15.0424 -3.57011 0
      vertex 14.3087 -4.41678 0
    endloop
  endfacet
  facet normal 0 0 -1
    outer loop
      vertex 11.7378 -2.49494 0
      vertex 14.3087 -4.41678 0
      vertex 10.9625 -4.88084 0
    endloop
  endfacet
  facet normal 0 0 -1
    outer loop
      vertex 10.9625 -4.88084 0
      vertex 14.0829 -5.54567 0
      vertex 14.4498 -6.61811 0
    endloop
  endfacet
  facet normal 0 0 -1
    outer loop
      vertex 10.9625 -4.88084 0
      vertex 14.4498 -6.61811 0
      vertex 16.1149 -8.33967 0
    endloop
  endfacet
  facet normal 0 0 -1
    outer loop
      vertex 10.9625 -4.88084 0
      vertex 16.1149 -8.33967 0
      vertex 9.7082 -7.05342 0
    endloop
  endfacet
  facet normal 0 0 -1
    outer loop
      vertex 9.7082 -7.05342 0
      vertex 15.2118 -9.92011 0
      vertex 13.462 -9.46856 0
    endloop
  endfacet
  facet normal 0 0 -1
    outer loop
      vertex 9.7082 -7.05342 0
      vertex 13.462 -9.46856 0
      vertex 12.3331 -9.38389 0
    endloop
  endfacet
  facet normal 0 0 -1
    outer loop
      vertex 9.7082 -7.05342 0
      vertex 12.3331 -9.38389 0
      vertex 11.2889 -9.86367 0
    endloop
  endfacet
  facet normal 0 0 1
    outer loop
      vertex -3.7082 -11.4127 1
      vertex 1.35467 -15.4799 1
      vertex 4.62844 -17.5966 1
    endloop
  endfacet
  facet normal 0 0 1
    outer loop
      vertex -14.1958 -6.13833 1
      vertex -12.8693 -9.35567 1
      vertex -14.1111 -5.00944 1
    endloop
  endfacet
  facet normal 0 0 1
    outer loop
      vertex -14.1111 -5.00944 1
      vertex -11.7404 -9.58144 1
      vertex -14.5909 -3.96522 1
    endloop
  endfacet
  facet normal 0 0 1
    outer loop
      vertex 6 -10.3923 1
      vertex 11.3453 -14.1817 1
      vertex 10.5551 -11.9239 1
    endloop
  endfacet
  facet normal 0 0 1
    outer loop
      vertex -14.8731 -7.06967 1
      vertex -15.2118 -9.92011 1
      vertex -14.1958 -6.13833 1
    endloop
  endfacet
  facet normal 0 0 1
    outer loop
      vertex -10.8938 -10.3152 1
      vertex -7.98689 -13.7866 1
      vertex -14.5909 -3.96522 1
    endloop
  endfacet
  facet normal 0 0 1
    outer loop
      vertex -16.1149 -8.33967 1
      vertex -15.2118 -9.92011 1
      vertex -14.8731 -7.06967 1
    endloop
  endfacet
  facet normal 0 0 1
    outer loop
      vertex -15.2118 -9.92011 1
      vertex -12.8693 -9.35567 1
      vertex -14.1958 -6.13833 1
    endloop
  endfacet
  facet normal 0 0 1
    outer loop
      vertex -10.5269 -11.3877 1
      vertex -7.98689 -13.7866 1
      vertex -10.8938 -10.3152 1
    endloop
  endfacet
  facet normal 0 0 1
    outer loop
      vertex -12.8693 -9.35567 1
      vertex -11.7404 -9.58144 1
      vertex -14.1111 -5.00944 1
    endloop
  endfacet
  facet normal 0 0 1
    outer loop
      vertex -11.7404 -9.58144 1
      vertex -10.8938 -10.3152 1
      vertex -14.5909 -3.96522 1
    endloop
  endfacet
  facet normal 0 0 1
    outer loop
      vertex -10.7244 -12.5166 1
      vertex -9.906 -15.2541 1
      vertex -10.5269 -11.3877 1
    endloop
  endfacet
  facet normal 0 0 1
    outer loop
      vertex -6.88622 -13.5326 1
      vertex -5.78556 -13.8712 1
      vertex -14.5909 -3.96522 1
    endloop
  endfacet
  facet normal 0 0 1
    outer loop
      vertex -11.3453 -14.1817 1
      vertex -9.906 -15.2541 1
      vertex -10.7244 -12.5166 1
    endloop
  endfacet
  facet normal 0 0 1
    outer loop
      vertex -9.906 -15.2541 1
      vertex -7.98689 -13.7866 1
      vertex -10.5269 -11.3877 1
    endloop
  endfacet
  facet normal 0 0 1
    outer loop
      vertex -5.78556 -13.8712 1
      vertex -5.02356 -14.6897 1
      vertex -14.5909 -3.96522 1
    endloop
  endfacet
  facet normal 0 0 1
    outer loop
      vertex -7.98689 -13.7866 1
      vertex -6.88622 -13.5326 1
      vertex -14.5909 -3.96522 1
    endloop
  endfacet
  facet normal 0 0 1
    outer loop
      vertex -5.02356 -14.6897 1
      vertex -1.74978 -15.8468 1
      vertex -14.5909 -3.96522 1
    endloop
  endfacet
  facet normal 0 0 1
    outer loop
      vertex -4.76956 -15.8186 1
      vertex -2.87867 -17.9634 1
      vertex -5.02356 -14.6897 1
    endloop
  endfacet
  facet normal 0 0 1
    outer loop
      vertex -4.62844 -17.5966 1
      vertex -2.87867 -17.9634 1
      vertex -4.76956 -15.8186 1
    endloop
  endfacet
  facet normal 0 0 1
    outer loop
      vertex -2.87867 -17.9634 1
      vertex -1.74978 -15.8468 1
      vertex -5.02356 -14.6897 1
    endloop
  endfacet
  facet normal 0 0 1
    outer loop
      vertex -1.74978 -15.8468 1
      vertex -0.818444 -15.1694 1
      vertex -14.5909 -3.96522 1
    endloop
  endfacet
  facet normal 0 0 1
    outer loop
      vertex -8.02957 -8.91774 1
      vertex -9.7082 -7.05342 1
      vertex -14.5909 -3.96522 1
    endloop
  endfacet
  facet normal 0 0 1
    outer loop
      vertex 2.032 -16.383 1
      vertex 4.62844 -17.5966 1
      vertex 1.35467 -15.4799 1
    endloop
  endfacet
  facet normal 0 0 1
    outer loop
      vertex 2.87867 -17.9634 1
      vertex 4.62844 -17.5966 1
      vertex 2.032 -16.383 1
    endloop
  endfacet
  facet normal 0 0 1
    outer loop
      vertex -3.7082 -11.4127 1
      vertex 0.310444 -15.0283 1
      vertex 1.35467 -15.4799 1
    endloop
  endfacet
  facet normal 0 0 1
    outer loop
      vertex 8.49489 -14.1534 1
      vertex 11.3453 -14.1817 1
      vertex 7.47889 -13.589 1
    endloop
  endfacet
  facet normal 0 0 1
    outer loop
      vertex 9.906 -15.2541 1
      vertex 11.3453 -14.1817 1
      vertex 8.49489 -14.1534 1
    endloop
  endfacet
  facet normal 0 0 1
    outer loop
      vertex 1.25434 -11.9343 1
      vertex -1.25434 -11.9343 1
      vertex 4.826 -15.1977 1
    endloop
  endfacet
  facet normal 0 0 1
    outer loop
      vertex 8.02957 -8.91774 1
      vertex 10.6398 -10.795 1
      vertex 11.2889 -9.86367 1
    endloop
  endfacet
  facet normal 0 0 1
    outer loop
      vertex 8.02957 -8.91774 1
      vertex 6 -10.3923 1
      vertex 10.6398 -10.795 1
    endloop
  endfacet
  facet normal 0 0 1
    outer loop
      vertex 15.2118 -9.92011 1
      vertex 16.1149 -8.33967 1
      vertex 13.462 -9.46856 1
    endloop
  endfacet
  facet normal 0 0 1
    outer loop
      vertex 10.9625 -4.88084 1
      vertex 14.4498 -6.61811 1
      vertex 14.0829 -5.54567 1
    endloop
  endfacet
  facet normal 0 0 1
    outer loop
      vertex 10.9625 -4.88084 1
      vertex 9.7082 -7.05342 1
      vertex 14.4498 -6.61811 1
    endloop
  endfacet
  facet normal 0 0 1
    outer loop
      vertex 9.7082 -7.05342 1
      vertex 12.3331 -9.38389 1
      vertex 13.462 -9.46856 1
    endloop
  endfacet
  facet normal 0 0 1
    outer loop
      vertex -12 0 1
      vertex -11.7378 2.49494 1
      vertex -17.8929 -2.89278 1
    endloop
  endfacet
  facet normal 0 0 1
    outer loop
      vertex 8.02957 8.91774 1
      vertex 13.0951 9.80722 1
      vertex 14.0264 11.3312 1
    endloop
  endfacet
  facet normal 0 0 1
    outer loop
      vertex 8.02957 8.91774 1
      vertex 9.7082 7.05342 1
      vertex 12.6436 8.763 1
    endloop
  endfacet
  facet normal 0 0 1
    outer loop
      vertex 6 10.3923 1
      vertex 10.668 11.6417 1
      vertex 9.53911 11.6134 1
    endloop
  endfacet
  facet normal 0 0 1
    outer loop
      vertex 12 0 1
      vertex 11.7378 -2.49494 1
      vertex 18.0622 -1.08656 1
    endloop
  endfacet
  facet normal 0 0 1
    outer loop
      vertex 3.7082 11.4127 1
      vertex 6 10.3923 1
      vertex 8.52311 12.1497 1
    endloop
  endfacet
  facet normal 0 0 1
    outer loop
      vertex 1.25434 11.9343 1
      vertex 7.93044 14.2663 1
      vertex 8.18444 16.0443 1
    endloop
  endfacet
  facet normal 0 0 1
    outer loop
      vertex -10.9625 -4.88084 1
      vertex -11.7378 -2.49494 1
      vertex -15.5222 -3.31611 1
    endloop
  endfacet
  facet normal 0 0 1
    outer loop
      vertex -15.5222 -3.31611 1
      vertex -11.7378 -2.49494 1
      vertex -17.8929 -2.89278 1
    endloop
  endfacet
  facet normal 0 0 1
    outer loop
      vertex 6 10.3923 1
      vertex 8.02957 8.91774 1
      vertex 10.668 11.6417 1
    endloop
  endfacet
  facet normal 0 0 1
    outer loop
      vertex -8.02957 8.91774 1
      vertex -6 10.3923 1
      vertex -2.31422 14.8308 1
    endloop
  endfacet
  facet normal 0 0 1
    outer loop
      vertex -1.25434 11.9343 1
      vertex 3.95111 14.4639 1
      vertex 2.794 14.5768 1
    endloop
  endfacet
  facet normal 0 0 1
    outer loop
      vertex 8.18444 16.0443 1
      vertex 6.51933 16.7781 1
      vertex 4.96711 14.9437 1
    endloop
  endfacet
  facet normal 0 0 1
    outer loop
      vertex -1.25434 11.9343 1
      vertex 4.96711 14.9437 1
      vertex 3.95111 14.4639 1
    endloop
  endfacet
  facet normal 0 0 1
    outer loop
      vertex -10.9625 4.88084 1
      vertex -9.7082 7.05342 1
      vertex -17.8929 -2.89278 1
    endloop
  endfacet
  facet normal 0 0 1
    outer loop
      vertex -3.7082 11.4127 1
      vertex -1.25434 11.9343 1
      vertex 1.86267 15.2259 1
    endloop
  endfacet
  facet normal 0 0 1
    outer loop
      vertex -9.7082 7.05342 1
      vertex -15.4376 0.155222 1
      vertex -17.8929 -2.89278 1
    endloop
  endfacet
  facet normal 0 0 1
    outer loop
      vertex 0.903111 17.9634 1
      vertex -0.903111 17.9634 1
      vertex -1.58044 15.6774 1
    endloop
  endfacet
  facet normal 0 0 1
    outer loop
      vertex -1.25434 11.9343 1
      vertex 1.25434 11.9343 1
      vertex 4.96711 14.9437 1
    endloop
  endfacet
  facet normal 0 0 1
    outer loop
      vertex 0.903111 17.9634 1
      vertex -1.58044 15.6774 1
      vertex -2.31422 14.8308 1
    endloop
  endfacet
  facet normal 0 0 1
    outer loop
      vertex 10.9625 4.88084 1
      vertex 11.7378 2.49494 1
      vertex 15.9738 3.62656 1
    endloop
  endfacet
  facet normal 0 0 1
    outer loop
      vertex 12 0 1
      vertex 18.0622 -1.08656 1
      vertex 15.8609 -0.183444 1
    endloop
  endfacet
  facet normal 0 0 1
    outer loop
      vertex -5.39044 15.3952 1
      vertex -6.51933 16.7781 1
      vertex -7.84578 13.6737 1
    endloop
  endfacet
  facet normal 0 0 1
    outer loop
      vertex -14.8731 1.17122 1
      vertex -15.4376 0.155222 1
      vertex -4.51556 14.6614 1
    endloop
  endfacet
  facet normal 0 0 1
    outer loop
      vertex -5.39044 15.3952 1
      vertex -7.84578 13.6737 1
      vertex -8.18444 12.573 1
    endloop
  endfacet
  facet normal 0 0 1
    outer loop
      vertex -14.0264 11.3312 1
      vertex -12.7847 9.271 1
      vertex -12.8129 12.6577 1
    endloop
  endfacet
  facet normal 0 0 1
    outer loop
      vertex -17.4696 4.61433 1
      vertex -15.1271 6.27944 1
      vertex -16.9051 6.33589 1
    endloop
  endfacet
  facet normal 0 0 1
    outer loop
      vertex -11.2324 11.8674 1
      vertex -12.8129 12.6577 1
      vertex -12.7847 9.271 1
    endloop
  endfacet
  facet normal 0 0 1
    outer loop
      vertex -17.4696 4.61433 1
      vertex -15.494 3.28789 1
      vertex -15.1271 6.27944 1
    endloop
  endfacet
  facet normal 0 0 1
    outer loop
      vertex -15.494 3.28789 1
      vertex -13.0951 7.09789 1
      vertex -13.9982 6.42056 1
    endloop
  endfacet
  facet normal 0 0 1
    outer loop
      vertex -13.9982 6.42056 1
      vertex -15.1271 6.27944 1
      vertex -15.494 3.28789 1
    endloop
  endfacet
  facet normal 0 0 1
    outer loop
      vertex -15.494 3.28789 1
      vertex -14.9013 2.30011 1
      vertex -10.1318 11.557 1
    endloop
  endfacet
  facet normal 0 0 1
    outer loop
      vertex -14.9013 2.30011 1
      vertex -5.39044 15.3952 1
      vertex -8.18444 12.573 1
    endloop
  endfacet
  facet normal 0 0 1
    outer loop
      vertex 9.7082 7.05342 1
      vertex 13.462 6.731 1
      vertex 12.7847 7.63411 1
    endloop
  endfacet
  facet normal 0 0 1
    outer loop
      vertex -15.494 3.28789 1
      vertex -10.1318 11.557 1
      vertex -13.0951 7.09789 1
    endloop
  endfacet
  facet normal 0 0 1
    outer loop
      vertex -14.9013 2.30011 1
      vertex -8.18444 12.573 1
      vertex -9.03111 11.811 1
    endloop
  endfacet
  facet normal 0 0 1
    outer loop
      vertex -12.7847 9.271 1
      vertex -12.6436 8.14211 1
      vertex -11.2324 11.8674 1
    endloop
  endfacet
  facet normal 0 0 1
    outer loop
      vertex -16.3971 -0.437444 1
      vertex -18.0622 -1.08656 1
      vertex -17.8929 -2.89278 1
    endloop
  endfacet
  facet normal 0 0 1
    outer loop
      vertex -10.1318 11.557 1
      vertex -11.2324 11.8674 1
      vertex -12.6436 8.14211 1
    endloop
  endfacet
  facet normal 0 0 1
    outer loop
      vertex -15.4376 0.155222 1
      vertex -16.3971 -0.437444 1
      vertex -17.8929 -2.89278 1
    endloop
  endfacet
  facet normal 0 0 1
    outer loop
      vertex -4.51556 14.6614 1
      vertex -5.39044 15.3952 1
      vertex -14.8731 1.17122 1
    endloop
  endfacet
  facet normal 0 0 1
    outer loop
      vertex -9.03111 11.811 1
      vertex -10.1318 11.557 1
      vertex -14.9013 2.30011 1
    endloop
  endfacet
  facet normal 0 0 1
    outer loop
      vertex 10.9625 4.88084 1
      vertex 15.9738 3.62656 1
      vertex 17.4696 4.61433 1
    endloop
  endfacet
  facet normal 0 0 1
    outer loop
      vertex -10.1318 11.557 1
      vertex -12.6436 8.14211 1
      vertex -13.0951 7.09789 1
    endloop
  endfacet
  facet normal 0 0 1
    outer loop
      vertex 9.7082 7.05342 1
      vertex 14.5062 6.27944 1
      vertex 13.462 6.731 1
    endloop
  endfacet
  facet normal 0 0 1
    outer loop
      vertex 1.25434 11.9343 1
      vertex 3.7082 11.4127 1
      vertex 7.93044 14.2663 1
    endloop
  endfacet
  facet normal 0 0 1
    outer loop
      vertex -8.02957 8.91774 1
      vertex -2.31422 14.8308 1
      vertex -3.41489 14.4357 1
    endloop
  endfacet
  facet normal 0 0 1
    outer loop
      vertex -3.41489 14.4357 1
      vertex -9.7082 7.05342 1
      vertex -8.02957 8.91774 1
    endloop
  endfacet
  facet normal 0 0 1
    outer loop
      vertex 0.903111 17.9634 1
      vertex -2.31422 14.8308 1
      vertex -6 10.3923 1
    endloop
  endfacet
  facet normal 0 0 1
    outer loop
      vertex -6 10.3923 1
      vertex -3.7082 11.4127 1
      vertex 0.903111 17.9634 1
    endloop
  endfacet
  facet normal 0 0 1
    outer loop
      vertex 1.38289 16.2701 1
      vertex 0.903111 17.9634 1
      vertex -3.7082 11.4127 1
    endloop
  endfacet
  facet normal 0 0 1
    outer loop
      vertex 10.668 11.6417 1
      vertex 8.02957 8.91774 1
      vertex 12.8129 12.6577 1
    endloop
  endfacet
  facet normal 0 0 1
    outer loop
      vertex 2.794 14.5768 1
      vertex 1.86267 15.2259 1
      vertex -1.25434 11.9343 1
    endloop
  endfacet
  facet normal 0 0 1
    outer loop
      vertex -11.7378 2.49494 1
      vertex -10.9625 4.88084 1
      vertex -17.8929 -2.89278 1
    endloop
  endfacet
  facet normal 0 0 1
    outer loop
      vertex 8.18444 16.0443 1
      vertex 4.96711 14.9437 1
      vertex 1.25434 11.9343 1
    endloop
  endfacet
  facet normal 0 0 1
    outer loop
      vertex 7.93044 13.1374 1
      vertex 7.93044 14.2663 1
      vertex 3.7082 11.4127 1
    endloop
  endfacet
  facet normal 0 0 1
    outer loop
      vertex 9.53911 11.6134 1
      vertex 8.52311 12.1497 1
      vertex 6 10.3923 1
    endloop
  endfacet
  facet normal 0 0 1
    outer loop
      vertex 9.7082 7.05342 1
      vertex 10.9625 4.88084 1
      vertex 14.5062 6.27944 1
    endloop
  endfacet
  facet normal 0 0 1
    outer loop
      vertex 14.0264 11.3312 1
      vertex 12.8129 12.6577 1
      vertex 8.02957 8.91774 1
    endloop
  endfacet
  facet normal 0 0 1
    outer loop
      vertex 3.7082 11.4127 1
      vertex 8.52311 12.1497 1
      vertex 7.93044 13.1374 1
    endloop
  endfacet
  facet normal 0 0 1
    outer loop
      vertex 12.7847 7.63411 1
      vertex 12.6436 8.763 1
      vertex 9.7082 7.05342 1
    endloop
  endfacet
  facet normal 0 0 1
    outer loop
      vertex 16.9051 6.33589 1
      vertex 14.5062 6.27944 1
      vertex 10.9625 4.88084 1
    endloop
  endfacet
  facet normal 0 0 1
    outer loop
      vertex 8.02957 8.91774 1
      vertex 12.6436 8.763 1
      vertex 13.0951 9.80722 1
    endloop
  endfacet
  facet normal 0 0 1
    outer loop
      vertex 15.1553 2.86456 1
      vertex 15.9738 3.62656 1
      vertex 11.7378 2.49494 1
    endloop
  endfacet
  facet normal 0 0 1
    outer loop
      vertex 15.8609 -0.183444 1
      vertex 15.0707 0.663222 1
      vertex 12 0 1
    endloop
  endfacet
  facet normal 0 0 1
    outer loop
      vertex 9.7082 -7.05342 1
      vertex 8.02957 -8.91774 1
      vertex 12.3331 -9.38389 1
    endloop
  endfacet
  facet normal 0 0 1
    outer loop
      vertex 17.8929 -2.89278 1
      vertex 18.0622 -1.08656 1
      vertex 11.7378 -2.49494 1
    endloop
  endfacet
  facet normal 0 0 1
    outer loop
      vertex 9.7082 -7.05342 1
      vertex 13.462 -9.46856 1
      vertex 16.1149 -8.33967 1
    endloop
  endfacet
  facet normal 0 0 1
    outer loop
      vertex 14.0829 -5.54567 1
      vertex 14.3087 -4.41678 1
      vertex 10.9625 -4.88084 1
    endloop
  endfacet
  facet normal 0 0 1
    outer loop
      vertex 6 -10.3923 1
      vertex 3.7082 -11.4127 1
      vertex 11.3453 -14.1817 1
    endloop
  endfacet
  facet normal 0 0 1
    outer loop
      vertex 16.1149 -8.33967 1
      vertex 14.4498 -6.61811 1
      vertex 9.7082 -7.05342 1
    endloop
  endfacet
  facet normal 0 0 1
    outer loop
      vertex 11.2889 -9.86367 1
      vertex 12.3331 -9.38389 1
      vertex 8.02957 -8.91774 1
    endloop
  endfacet
  facet normal 0 0 1
    outer loop
      vertex -9.7082 -7.05342 1
      vertex -10.9625 -4.88084 1
      vertex -15.5222 -3.31611 1
    endloop
  endfacet
  facet normal 0 0 1
    outer loop
      vertex 10.5551 -11.9239 1
      vertex 10.6398 -10.795 1
      vertex 6 -10.3923 1
    endloop
  endfacet
  facet normal 0 0 1
    outer loop
      vertex 1.25434 -11.9343 1
      vertex 4.826 -15.1977 1
      vertex 5.36222 -14.2099 1
    endloop
  endfacet
  facet normal 0 0 1
    outer loop
      vertex 7.47889 -13.589 1
      vertex 11.3453 -14.1817 1
      vertex 3.7082 -11.4127 1
    endloop
  endfacet
  facet normal 0 0 1
    outer loop
      vertex -3.7082 -11.4127 1
      vertex -6 -10.3923 1
      vertex 0.310444 -15.0283 1
    endloop
  endfacet
  facet normal 0 0 1
    outer loop
      vertex 5.36222 -14.2099 1
      vertex 6.35 -13.6172 1
      vertex 1.25434 -11.9343 1
    endloop
  endfacet
  facet normal 0 0 1
    outer loop
      vertex 4.62844 -17.5966 1
      vertex 4.826 -15.1977 1
      vertex -1.25434 -11.9343 1
    endloop
  endfacet
  facet normal 0 0 1
    outer loop
      vertex -9.7082 -7.05342 1
      vertex -15.5222 -3.31611 1
      vertex -14.5909 -3.96522 1
    endloop
  endfacet
  facet normal 0 0 1
    outer loop
      vertex 4.62844 -17.5966 1
      vertex -1.25434 -11.9343 1
      vertex -3.7082 -11.4127 1
    endloop
  endfacet
  facet normal 0 0 1
    outer loop
      vertex -0.818444 -15.1694 1
      vertex 0.310444 -15.0283 1
      vertex -6 -10.3923 1
    endloop
  endfacet
  facet normal 0 0 1
    outer loop
      vertex -0.818444 -15.1694 1
      vertex -8.02957 -8.91774 1
      vertex -14.5909 -3.96522 1
    endloop
  endfacet
  facet normal 0 0 1
    outer loop
      vertex -0.818444 -15.1694 1
      vertex -6 -10.3923 1
      vertex -8.02957 -8.91774 1
    endloop
  endfacet
  facet normal 0 0 1
    outer loop
      vertex 3.7082 -11.4127 1
      vertex 6.35 -13.6172 1
      vertex 7.47889 -13.589 1
    endloop
  endfacet
  facet normal 0 0 1
    outer loop
      vertex 3.7082 -11.4127 1
      vertex 1.25434 -11.9343 1
      vertex 6.35 -13.6172 1
    endloop
  endfacet
  facet normal 0 0 1
    outer loop
      vertex 11.7378 -2.49494 1
      vertex 16.1149 -3.20322 1
      vertex 17.8929 -2.89278 1
    endloop
  endfacet
  facet normal 0 0 1
    outer loop
      vertex 11.7378 -2.49494 1
      vertex 15.0424 -3.57011 1
      vertex 16.1149 -3.20322 1
    endloop
  endfacet
  facet normal 0 0 1
    outer loop
      vertex -3.7082 11.4127 1
      vertex 1.86267 15.2259 1
      vertex 1.38289 16.2701 1
    endloop
  endfacet
  facet normal 0 0 1
    outer loop
      vertex -9.7082 7.05342 1
      vertex -4.51556 14.6614 1
      vertex -15.4376 0.155222 1
    endloop
  endfacet
  facet normal 0 0 1
    outer loop
      vertex -3.41489 14.4357 1
      vertex -4.51556 14.6614 1
      vertex -9.7082 7.05342 1
    endloop
  endfacet
  facet normal 0 0 1
    outer loop
      vertex -8.18444 16.0443 1
      vertex -7.84578 13.6737 1
      vertex -6.51933 16.7781 1
    endloop
  endfacet
  facet normal 0 0 1
    outer loop
      vertex -14.9013 2.30011 1
      vertex -14.8731 1.17122 1
      vertex -5.39044 15.3952 1
    endloop
  endfacet
  facet normal 0 0 1
    outer loop
      vertex 10.9625 4.88084 1
      vertex 17.4696 4.61433 1
      vertex 16.9051 6.33589 1
    endloop
  endfacet
  facet normal 0 0 1
    outer loop
      vertex 11.7378 2.49494 1
      vertex 12 0 1
      vertex 15.0707 0.663222 1
    endloop
  endfacet
  facet normal 0 0 1
    outer loop
      vertex 11.7378 2.49494 1
      vertex 15.0707 0.663222 1
      vertex 14.8167 1.76389 1
    endloop
  endfacet
  facet normal 0 0 1
    outer loop
      vertex 11.7378 2.49494 1
      vertex 14.8167 1.76389 1
      vertex 15.1553 2.86456 1
    endloop
  endfacet
  facet normal 0 0 1
    outer loop
      vertex 11.7378 -2.49494 1
      vertex 10.9625 -4.88084 1
      vertex 14.3087 -4.41678 1
    endloop
  endfacet
  facet normal 0 0 1
    outer loop
      vertex 11.7378 -2.49494 1
      vertex 14.3087 -4.41678 1
      vertex 15.0424 -3.57011 1
    endloop
  endfacet
  facet normal 0 0 1
    outer loop
      vertex -11.7378 -2.49494 1
      vertex -12 0 1
      vertex -17.8929 -2.89278 1
    endloop
  endfacet
  facet normal -0.525493 0.850798 0
    outer loop
      vertex -15.4376 0.155222 1
      vertex -15.4376 0.155222 0
      vertex -16.3971 -0.437444 1
    endloop
  endfacet
  facet normal -0.525493 0.850798 0
    outer loop
      vertex -16.3971 -0.437444 1
      vertex -15.4376 0.155222 0
      vertex -16.3971 -0.437444 0
    endloop
  endfacet
  facet normal -0.175791 -0.984428 0
    outer loop
      vertex -15.5222 -3.31611 0
      vertex -15.5222 -3.31611 1
      vertex -17.8929 -2.89278 1
    endloop
  endfacet
  facet normal -0.175791 -0.984428 0
    outer loop
      vertex -17.8929 -2.89278 0
      vertex -15.5222 -3.31611 0
      vertex -17.8929 -2.89278 1
    endloop
  endfacet
  facet normal -0.571793 -0.820398 0
    outer loop
      vertex -14.5909 -3.96522 0
      vertex -14.5909 -3.96522 1
      vertex -15.5222 -3.31611 1
    endloop
  endfacet
  facet normal -0.571793 -0.820398 0
    outer loop
      vertex -15.5222 -3.31611 0
      vertex -14.5909 -3.96522 0
      vertex -15.5222 -3.31611 1
    endloop
  endfacet
  facet normal -0.908677 -0.4175 0
    outer loop
      vertex -14.1111 -5.00944 1
      vertex -14.5909 -3.96522 1
      vertex -14.1111 -5.00944 0
    endloop
  endfacet
  facet normal -0.908677 -0.4175 0
    outer loop
      vertex -14.1111 -5.00944 0
      vertex -14.5909 -3.96522 1
      vertex -14.5909 -3.96522 0
    endloop
  endfacet
  facet normal -0.997199 0.0747899 0
    outer loop
      vertex -14.1111 -5.00944 1
      vertex -14.1111 -5.00944 0
      vertex -14.1958 -6.13833 1
    endloop
  endfacet
  facet normal -0.997199 0.0747899 0
    outer loop
      vertex -14.1958 -6.13833 1
      vertex -14.1111 -5.00944 0
      vertex -14.1958 -6.13833 0
    endloop
  endfacet
  facet normal -0.808736 0.588172 0
    outer loop
      vertex -14.1958 -6.13833 1
      vertex -14.1958 -6.13833 0
      vertex -14.8731 -7.06967 1
    endloop
  endfacet
  facet normal -0.808736 0.588172 0
    outer loop
      vertex -14.8731 -7.06967 1
      vertex -14.1958 -6.13833 0
      vertex -14.8731 -7.06967 0
    endloop
  endfacet
  facet normal -0.715007 0.699118 0
    outer loop
      vertex -14.8731 -7.06967 1
      vertex -14.8731 -7.06967 0
      vertex -16.1149 -8.33967 1
    endloop
  endfacet
  facet normal -0.715007 0.699118 0
    outer loop
      vertex -16.1149 -8.33967 1
      vertex -14.8731 -7.06967 0
      vertex -16.1149 -8.33967 0
    endloop
  endfacet
  facet normal -0.868243 -0.496139 0
    outer loop
      vertex -15.2118 -9.92011 1
      vertex -16.1149 -8.33967 1
      vertex -15.2118 -9.92011 0
    endloop
  endfacet
  facet normal -0.868243 -0.496139 0
    outer loop
      vertex -15.2118 -9.92011 0
      vertex -16.1149 -8.33967 1
      vertex -16.1149 -8.33967 0
    endloop
  endfacet
  facet normal 0.234259 -0.972174 0
    outer loop
      vertex -12.8693 -9.35567 0
      vertex -12.8693 -9.35567 1
      vertex -15.2118 -9.92011 1
    endloop
  endfacet
  facet normal 0.234259 -0.972174 0
    outer loop
      vertex -15.2118 -9.92011 0
      vertex -12.8693 -9.35567 0
      vertex -15.2118 -9.92011 1
    endloop
  endfacet
  facet normal -0.196116 -0.980581 0
    outer loop
      vertex -11.7404 -9.58144 0
      vertex -11.7404 -9.58144 1
      vertex -12.8693 -9.35567 1
    endloop
  endfacet
  facet normal -0.196116 -0.980581 0
    outer loop
      vertex -12.8693 -9.35567 0
      vertex -11.7404 -9.58144 0
      vertex -12.8693 -9.35567 1
    endloop
  endfacet
  facet normal -0.654931 -0.755689 0
    outer loop
      vertex -10.8938 -10.3152 0
      vertex -10.8938 -10.3152 1
      vertex -11.7404 -9.58144 1
    endloop
  endfacet
  facet normal -0.654931 -0.755689 0
    outer loop
      vertex -11.7404 -9.58144 0
      vertex -10.8938 -10.3152 0
      vertex -11.7404 -9.58144 1
    endloop
  endfacet
  facet normal -0.946164 -0.323688 0
    outer loop
      vertex -10.5269 -11.3877 1
      vertex -10.8938 -10.3152 1
      vertex -10.5269 -11.3877 0
    endloop
  endfacet
  facet normal -0.946164 -0.323688 0
    outer loop
      vertex -10.5269 -11.3877 0
      vertex -10.8938 -10.3152 1
      vertex -10.8938 -10.3152 0
    endloop
  endfacet
  facet normal -0.98503 0.17238 0
    outer loop
      vertex -10.5269 -11.3877 1
      vertex -10.5269 -11.3877 0
      vertex -10.7244 -12.5166 1
    endloop
  endfacet
  facet normal -0.98503 0.17238 0
    outer loop
      vertex -10.7244 -12.5166 1
      vertex -10.5269 -11.3877 0
      vertex -10.7244 -12.5166 0
    endloop
  endfacet
  facet normal -0.93698 0.349382 0
    outer loop
      vertex -10.7244 -12.5166 1
      vertex -10.7244 -12.5166 0
      vertex -11.3453 -14.1817 1
    endloop
  endfacet
  facet normal -0.93698 0.349382 0
    outer loop
      vertex -11.3453 -14.1817 1
      vertex -10.7244 -12.5166 0
      vertex -11.3453 -14.1817 0
    endloop
  endfacet
  facet normal -0.597481 -0.801883 0
    outer loop
      vertex -9.906 -15.2541 0
      vertex -9.906 -15.2541 1
      vertex -11.3453 -14.1817 1
    endloop
  endfacet
  facet normal -0.597481 -0.801883 0
    outer loop
      vertex -11.3453 -14.1817 0
      vertex -9.906 -15.2541 0
      vertex -11.3453 -14.1817 1
    endloop
  endfacet
  facet normal 0.60745 -0.794358 0
    outer loop
      vertex -7.98689 -13.7866 0
      vertex -7.98689 -13.7866 1
      vertex -9.906 -15.2541 1
    endloop
  endfacet
  facet normal 0.60745 -0.794358 0
    outer loop
      vertex -9.906 -15.2541 0
      vertex -7.98689 -13.7866 0
      vertex -9.906 -15.2541 1
    endloop
  endfacet
  facet normal 0.22486 -0.974391 0
    outer loop
      vertex -6.88622 -13.5326 0
      vertex -6.88622 -13.5326 1
      vertex -7.98689 -13.7866 1
    endloop
  endfacet
  facet normal 0.22486 -0.974391 0
    outer loop
      vertex -7.98689 -13.7866 0
      vertex -6.88622 -13.5326 0
      vertex -7.98689 -13.7866 1
    endloop
  endfacet
  facet normal -0.294086 -0.955779 0
    outer loop
      vertex -5.78556 -13.8712 0
      vertex -5.78556 -13.8712 1
      vertex -6.88622 -13.5326 1
    endloop
  endfacet
  facet normal -0.294086 -0.955779 0
    outer loop
      vertex -6.88622 -13.5326 0
      vertex -5.78556 -13.8712 0
      vertex -6.88622 -13.5326 1
    endloop
  endfacet
  facet normal -0.731894 -0.681419 0
    outer loop
      vertex -5.02356 -14.6897 1
      vertex -5.78556 -13.8712 1
      vertex -5.02356 -14.6897 0
    endloop
  endfacet
  facet normal -0.731894 -0.681419 0
    outer loop
      vertex -5.02356 -14.6897 0
      vertex -5.78556 -13.8712 1
      vertex -5.78556 -13.8712 0
    endloop
  endfacet
  facet normal -0.97561 -0.219512 0
    outer loop
      vertex -4.76956 -15.8186 1
      vertex -5.02356 -14.6897 1
      vertex -4.76956 -15.8186 0
    endloop
  endfacet
  facet normal -0.97561 -0.219512 0
    outer loop
      vertex -4.76956 -15.8186 0
      vertex -5.02356 -14.6897 1
      vertex -5.02356 -14.6897 0
    endloop
  endfacet
  facet normal -0.996865 -0.0791163 0
    outer loop
      vertex -4.62844 -17.5966 1
      vertex -4.76956 -15.8186 1
      vertex -4.62844 -17.5966 0
    endloop
  endfacet
  facet normal -0.996865 -0.0791163 0
    outer loop
      vertex -4.62844 -17.5966 0
      vertex -4.76956 -15.8186 1
      vertex -4.76956 -15.8186 0
    endloop
  endfacet
  facet normal -0.205215 -0.978717 0
    outer loop
      vertex -2.87867 -17.9634 0
      vertex -2.87867 -17.9634 1
      vertex -4.62844 -17.5966 1
    endloop
  endfacet
  facet normal -0.205215 -0.978717 0
    outer loop
      vertex -4.62844 -17.5966 0
      vertex -2.87867 -17.9634 0
      vertex -4.62844 -17.5966 1
    endloop
  endfacet
  facet normal 0.882353 -0.470588 0
    outer loop
      vertex -1.74978 -15.8468 0
      vertex -1.74978 -15.8468 1
      vertex -2.87867 -17.9634 1
    endloop
  endfacet
  facet normal 0.882353 -0.470588 0
    outer loop
      vertex -2.87867 -17.9634 0
      vertex -1.74978 -15.8468 0
      vertex -2.87867 -17.9634 1
    endloop
  endfacet
  facet normal 0.588172 -0.808736 0
    outer loop
      vertex -0.818444 -15.1694 0
      vertex -0.818444 -15.1694 1
      vertex -1.74978 -15.8468 1
    endloop
  endfacet
  facet normal 0.588172 -0.808736 0
    outer loop
      vertex -1.74978 -15.8468 0
      vertex -0.818444 -15.1694 0
      vertex -1.74978 -15.8468 1
    endloop
  endfacet
  facet normal 0.124035 -0.992278 0
    outer loop
      vertex 0.310444 -15.0283 0
      vertex 0.310444 -15.0283 1
      vertex -0.818444 -15.1694 1
    endloop
  endfacet
  facet normal 0.124035 -0.992278 0
    outer loop
      vertex -0.818444 -15.1694 0
      vertex 0.310444 -15.0283 0
      vertex -0.818444 -15.1694 1
    endloop
  endfacet
  facet normal -0.396911 -0.917857 0
    outer loop
      vertex 1.35467 -15.4799 0
      vertex 1.35467 -15.4799 1
      vertex 0.310444 -15.0283 1
    endloop
  endfacet
  facet normal -0.396911 -0.917857 0
    outer loop
      vertex 0.310444 -15.0283 0
      vertex 1.35467 -15.4799 0
      vertex 0.310444 -15.0283 1
    endloop
  endfacet
  facet normal -0.8 -0.6 0
    outer loop
      vertex 2.032 -16.383 1
      vertex 1.35467 -15.4799 1
      vertex 2.032 -16.383 0
    endloop
  endfacet
  facet normal -0.8 -0.6 0
    outer loop
      vertex 2.032 -16.383 0
      vertex 1.35467 -15.4799 1
      vertex 1.35467 -15.4799 0
    endloop
  endfacet
  facet normal -0.88148 -0.472221 0
    outer loop
      vertex 2.87867 -17.9634 1
      vertex 2.032 -16.383 1
      vertex 2.87867 -17.9634 0
    endloop
  endfacet
  facet normal -0.88148 -0.472221 0
    outer loop
      vertex 2.87867 -17.9634 0
      vertex 2.032 -16.383 1
      vertex 2.032 -16.383 0
    endloop
  endfacet
  facet normal 0.205215 -0.978717 0
    outer loop
      vertex 4.62844 -17.5966 0
      vertex 4.62844 -17.5966 1
      vertex 2.87867 -17.9634 1
    endloop
  endfacet
  facet normal 0.205215 -0.978717 0
    outer loop
      vertex 2.87867 -17.9634 0
      vertex 4.62844 -17.5966 0
      vertex 2.87867 -17.9634 1
    endloop
  endfacet
  facet normal 0.996626 -0.0820751 0
    outer loop
      vertex 4.826 -15.1977 0
      vertex 4.826 -15.1977 1
      vertex 4.62844 -17.5966 1
    endloop
  endfacet
  facet normal 0.996626 -0.0820751 0
    outer loop
      vertex 4.62844 -17.5966 0
      vertex 4.826 -15.1977 0
      vertex 4.62844 -17.5966 1
    endloop
  endfacet
  facet normal 0.878853 -0.477092 0
    outer loop
      vertex 5.36222 -14.2099 0
      vertex 5.36222 -14.2099 1
      vertex 4.826 -15.1977 1
    endloop
  endfacet
  facet normal 0.878853 -0.477092 0
    outer loop
      vertex 4.826 -15.1977 0
      vertex 5.36222 -14.2099 0
      vertex 4.826 -15.1977 1
    endloop
  endfacet
  facet normal 0.514496 -0.857493 0
    outer loop
      vertex 6.35 -13.6172 0
      vertex 6.35 -13.6172 1
      vertex 5.36222 -14.2099 1
    endloop
  endfacet
  facet normal 0.514496 -0.857493 0
    outer loop
      vertex 5.36222 -14.2099 0
      vertex 6.35 -13.6172 0
      vertex 5.36222 -14.2099 1
    endloop
  endfacet
  facet normal 0.0249922 -0.999688 0
    outer loop
      vertex 7.47889 -13.589 0
      vertex 7.47889 -13.589 1
      vertex 6.35 -13.6172 1
    endloop
  endfacet
  facet normal 0.0249922 -0.999688 0
    outer loop
      vertex 6.35 -13.6172 0
      vertex 7.47889 -13.589 0
      vertex 6.35 -13.6172 1
    endloop
  endfacet
  facet normal -0.485643 -0.874157 0
    outer loop
      vertex 8.49489 -14.1534 0
      vertex 8.49489 -14.1534 1
      vertex 7.47889 -13.589 1
    endloop
  endfacet
  facet normal -0.485643 -0.874157 0
    outer loop
      vertex 7.47889 -13.589 0
      vertex 8.49489 -14.1534 0
      vertex 7.47889 -13.589 1
    endloop
  endfacet
  facet normal -0.615032 -0.788502 0
    outer loop
      vertex 9.906 -15.2541 0
      vertex 9.906 -15.2541 1
      vertex 8.49489 -14.1534 1
    endloop
  endfacet
  facet normal -0.615032 -0.788502 0
    outer loop
      vertex 8.49489 -14.1534 0
      vertex 9.906 -15.2541 0
      vertex 8.49489 -14.1534 1
    endloop
  endfacet
  facet normal 0.597481 -0.801883 0
    outer loop
      vertex 11.3453 -14.1817 0
      vertex 11.3453 -14.1817 1
      vertex 9.906 -15.2541 1
    endloop
  endfacet
  facet normal 0.597481 -0.801883 0
    outer loop
      vertex 9.906 -15.2541 0
      vertex 11.3453 -14.1817 0
      vertex 9.906 -15.2541 1
    endloop
  endfacet
  facet normal 0.943858 0.33035 0
    outer loop
      vertex 10.5551 -11.9239 1
      vertex 11.3453 -14.1817 1
      vertex 11.3453 -14.1817 0
    endloop
  endfacet
  facet normal 0.943858 0.33035 0
    outer loop
      vertex 10.5551 -11.9239 0
      vertex 10.5551 -11.9239 1
      vertex 11.3453 -14.1817 0
    endloop
  endfacet
  facet normal 0.997199 -0.0747899 0
    outer loop
      vertex 10.6398 -10.795 0
      vertex 10.6398 -10.795 1
      vertex 10.5551 -11.9239 1
    endloop
  endfacet
  facet normal 0.997199 -0.0747899 0
    outer loop
      vertex 10.5551 -11.9239 0
      vertex 10.6398 -10.795 0
      vertex 10.5551 -11.9239 1
    endloop
  endfacet
  facet normal 0.820398 -0.571793 0
    outer loop
      vertex 11.2889 -9.86367 0
      vertex 11.2889 -9.86367 1
      vertex 10.6398 -10.795 1
    endloop
  endfacet
  facet normal 0.820398 -0.571793 0
    outer loop
      vertex 10.6398 -10.795 0
      vertex 11.2889 -9.86367 0
      vertex 10.6398 -10.795 1
    endloop
  endfacet
  facet normal 0.4175 -0.908677 0
    outer loop
      vertex 12.3331 -9.38389 0
      vertex 12.3331 -9.38389 1
      vertex 11.2889 -9.86367 1
    endloop
  endfacet
  facet normal 0.4175 -0.908677 0
    outer loop
      vertex 11.2889 -9.86367 0
      vertex 12.3331 -9.38389 0
      vertex 11.2889 -9.86367 1
    endloop
  endfacet
  facet normal -0.0747899 -0.997199 0
    outer loop
      vertex 13.462 -9.46856 0
      vertex 13.462 -9.46856 1
      vertex 12.3331 -9.38389 1
    endloop
  endfacet
  facet normal -0.0747899 -0.997199 0
    outer loop
      vertex 12.3331 -9.38389 0
      vertex 13.462 -9.46856 0
      vertex 12.3331 -9.38389 1
    endloop
  endfacet
  facet normal -0.249878 -0.968277 0
    outer loop
      vertex 15.2118 -9.92011 0
      vertex 15.2118 -9.92011 1
      vertex 13.462 -9.46856 1
    endloop
  endfacet
  facet normal -0.249878 -0.968277 0
    outer loop
      vertex 13.462 -9.46856 0
      vertex 15.2118 -9.92011 0
      vertex 13.462 -9.46856 1
    endloop
  endfacet
  facet normal 0.868243 -0.496139 0
    outer loop
      vertex 16.1149 -8.33967 0
      vertex 16.1149 -8.33967 1
      vertex 15.2118 -9.92011 1
    endloop
  endfacet
  facet normal 0.868243 -0.496139 0
    outer loop
      vertex 15.2118 -9.92011 0
      vertex 16.1149 -8.33967 0
      vertex 15.2118 -9.92011 1
    endloop
  endfacet
  facet normal 0.718792 0.695225 0
    outer loop
      vertex 14.4498 -6.61811 1
      vertex 16.1149 -8.33967 1
      vertex 16.1149 -8.33967 0
    endloop
  endfacet
  facet normal 0.718792 0.695225 0
    outer loop
      vertex 14.4498 -6.61811 0
      vertex 14.4498 -6.61811 1
      vertex 16.1149 -8.33967 0
    endloop
  endfacet
  facet normal 0.946164 0.323688 0
    outer loop
      vertex 14.0829 -5.54567 1
      vertex 14.4498 -6.61811 1
      vertex 14.4498 -6.61811 0
    endloop
  endfacet
  facet normal 0.946164 0.323688 0
    outer loop
      vertex 14.0829 -5.54567 0
      vertex 14.0829 -5.54567 1
      vertex 14.4498 -6.61811 0
    endloop
  endfacet
  facet normal 0.980581 -0.196116 0
    outer loop
      vertex 14.3087 -4.41678 0
      vertex 14.3087 -4.41678 1
      vertex 14.0829 -5.54567 1
    endloop
  endfacet
  facet normal 0.980581 -0.196116 0
    outer loop
      vertex 14.0829 -5.54567 0
      vertex 14.3087 -4.41678 0
      vertex 14.0829 -5.54567 1
    endloop
  endfacet
  facet normal 0.755689 -0.654931 0
    outer loop
      vertex 15.0424 -3.57011 0
      vertex 15.0424 -3.57011 1
      vertex 14.3087 -4.41678 1
    endloop
  endfacet
  facet normal 0.755689 -0.654931 0
    outer loop
      vertex 14.3087 -4.41678 0
      vertex 15.0424 -3.57011 0
      vertex 14.3087 -4.41678 1
    endloop
  endfacet
  facet normal 0.323688 -0.946164 0
    outer loop
      vertex 16.1149 -3.20322 0
      vertex 16.1149 -3.20322 1
      vertex 15.0424 -3.57011 1
    endloop
  endfacet
  facet normal 0.323688 -0.946164 0
    outer loop
      vertex 15.0424 -3.57011 0
      vertex 16.1149 -3.20322 0
      vertex 15.0424 -3.57011 1
    endloop
  endfacet
  facet normal 0.172001 -0.985097 0
    outer loop
      vertex 17.8929 -2.89278 0
      vertex 17.8929 -2.89278 1
      vertex 16.1149 -3.20322 1
    endloop
  endfacet
  facet normal 0.172001 -0.985097 0
    outer loop
      vertex 16.1149 -3.20322 0
      vertex 17.8929 -2.89278 0
      vertex 16.1149 -3.20322 1
    endloop
  endfacet
  facet normal 0.995634 -0.0933407 0
    outer loop
      vertex 18.0622 -1.08656 0
      vertex 18.0622 -1.08656 1
      vertex 17.8929 -2.89278 1
    endloop
  endfacet
  facet normal 0.995634 -0.0933407 0
    outer loop
      vertex 17.8929 -2.89278 0
      vertex 18.0622 -1.08656 0
      vertex 17.8929 -2.89278 1
    endloop
  endfacet
  facet normal 0.379556 0.925169 0
    outer loop
      vertex 18.0622 -1.08656 1
      vertex 18.0622 -1.08656 0
      vertex 15.8609 -0.183444 1
    endloop
  endfacet
  facet normal 0.379556 0.925169 0
    outer loop
      vertex 15.8609 -0.183444 1
      vertex 18.0622 -1.08656 0
      vertex 15.8609 -0.183444 0
    endloop
  endfacet
  facet normal 0.731055 0.682318 0
    outer loop
      vertex 15.0707 0.663222 1
      vertex 15.8609 -0.183444 1
      vertex 15.8609 -0.183444 0
    endloop
  endfacet
  facet normal 0.731055 0.682318 0
    outer loop
      vertex 15.0707 0.663222 0
      vertex 15.0707 0.663222 1
      vertex 15.8609 -0.183444 0
    endloop
  endfacet
  facet normal 0.974391 0.22486 0
    outer loop
      vertex 14.8167 1.76389 1
      vertex 15.0707 0.663222 1
      vertex 15.0707 0.663222 0
    endloop
  endfacet
  facet normal 0.974391 0.22486 0
    outer loop
      vertex 14.8167 1.76389 0
      vertex 14.8167 1.76389 1
      vertex 15.0707 0.663222 0
    endloop
  endfacet
  facet normal 0.955779 -0.294086 0
    outer loop
      vertex 15.1553 2.86456 0
      vertex 15.1553 2.86456 1
      vertex 14.8167 1.76389 1
    endloop
  endfacet
  facet normal 0.955779 -0.294086 0
    outer loop
      vertex 14.8167 1.76389 0
      vertex 15.1553 2.86456 0
      vertex 14.8167 1.76389 1
    endloop
  endfacet
  facet normal 0.681419 -0.731894 0
    outer loop
      vertex 15.9738 3.62656 0
      vertex 15.9738 3.62656 1
      vertex 15.1553 2.86456 1
    endloop
  endfacet
  facet normal 0.681419 -0.731894 0
    outer loop
      vertex 15.1553 2.86456 0
      vertex 15.9738 3.62656 0
      vertex 15.1553 2.86456 1
    endloop
  endfacet
  facet normal 0.551062 -0.834465 0
    outer loop
      vertex 17.4696 4.61433 0
      vertex 17.4696 4.61433 1
      vertex 15.9738 3.62656 1
    endloop
  endfacet
  facet normal 0.551062 -0.834465 0
    outer loop
      vertex 15.9738 3.62656 0
      vertex 17.4696 4.61433 0
      vertex 15.9738 3.62656 1
    endloop
  endfacet
  facet normal 0.95023 0.311551 0
    outer loop
      vertex 16.9051 6.33589 1
      vertex 17.4696 4.61433 1
      vertex 17.4696 4.61433 0
    endloop
  endfacet
  facet normal 0.95023 0.311551 0
    outer loop
      vertex 16.9051 6.33589 0
      vertex 16.9051 6.33589 1
      vertex 17.4696 4.61433 0
    endloop
  endfacet
  facet normal -0.0235229 0.999723 0
    outer loop
      vertex 16.9051 6.33589 1
      vertex 16.9051 6.33589 0
      vertex 14.5062 6.27944 1
    endloop
  endfacet
  facet normal -0.0235229 0.999723 0
    outer loop
      vertex 14.5062 6.27944 1
      vertex 16.9051 6.33589 0
      vertex 14.5062 6.27944 0
    endloop
  endfacet
  facet normal 0.396911 0.917857 0
    outer loop
      vertex 14.5062 6.27944 1
      vertex 14.5062 6.27944 0
      vertex 13.462 6.731 1
    endloop
  endfacet
  facet normal 0.396911 0.917857 0
    outer loop
      vertex 13.462 6.731 1
      vertex 14.5062 6.27944 0
      vertex 13.462 6.731 0
    endloop
  endfacet
  facet normal 0.8 0.6 0
    outer loop
      vertex 12.7847 7.63411 1
      vertex 13.462 6.731 1
      vertex 13.462 6.731 0
    endloop
  endfacet
  facet normal 0.8 0.6 0
    outer loop
      vertex 12.7847 7.63411 0
      vertex 12.7847 7.63411 1
      vertex 13.462 6.731 0
    endloop
  endfacet
  facet normal 0.992278 0.124035 0
    outer loop
      vertex 12.6436 8.763 1
      vertex 12.7847 7.63411 1
      vertex 12.7847 7.63411 0
    endloop
  endfacet
  facet normal 0.992278 0.124035 0
    outer loop
      vertex 12.6436 8.763 0
      vertex 12.6436 8.763 1
      vertex 12.7847 7.63411 0
    endloop
  endfacet
  facet normal 0.917857 -0.396911 0
    outer loop
      vertex 13.0951 9.80722 0
      vertex 13.0951 9.80722 1
      vertex 12.6436 8.763 1
    endloop
  endfacet
  facet normal 0.917857 -0.396911 0
    outer loop
      vertex 12.6436 8.763 0
      vertex 13.0951 9.80722 0
      vertex 12.6436 8.763 1
    endloop
  endfacet
  facet normal 0.853282 -0.52145 0
    outer loop
      vertex 14.0264 11.3312 0
      vertex 14.0264 11.3312 1
      vertex 13.0951 9.80722 1
    endloop
  endfacet
  facet normal 0.853282 -0.52145 0
    outer loop
      vertex 13.0951 9.80722 0
      vertex 14.0264 11.3312 0
      vertex 13.0951 9.80722 1
    endloop
  endfacet
  facet normal 0.737805 0.675013 0
    outer loop
      vertex 12.8129 12.6577 1
      vertex 14.0264 11.3312 1
      vertex 14.0264 11.3312 0
    endloop
  endfacet
  facet normal 0.737805 0.675013 0
    outer loop
      vertex 12.8129 12.6577 0
      vertex 12.8129 12.6577 1
      vertex 14.0264 11.3312 0
    endloop
  endfacet
  facet normal -0.428086 0.903738 0
    outer loop
      vertex 12.8129 12.6577 1
      vertex 12.8129 12.6577 0
      vertex 10.668 11.6417 1
    endloop
  endfacet
  facet normal -0.428086 0.903738 0
    outer loop
      vertex 10.668 11.6417 1
      vertex 12.8129 12.6577 0
      vertex 10.668 11.6417 0
    endloop
  endfacet
  facet normal -0.0249922 0.999688 0
    outer loop
      vertex 10.668 11.6417 1
      vertex 10.668 11.6417 0
      vertex 9.53911 11.6134 1
    endloop
  endfacet
  facet normal -0.0249922 0.999688 0
    outer loop
      vertex 9.53911 11.6134 1
      vertex 10.668 11.6417 0
      vertex 9.53911 11.6134 0
    endloop
  endfacet
  facet normal 0.466759 0.884385 0
    outer loop
      vertex 9.53911 11.6134 1
      vertex 9.53911 11.6134 0
      vertex 8.52311 12.1497 1
    endloop
  endfacet
  facet normal 0.466759 0.884385 0
    outer loop
      vertex 8.52311 12.1497 1
      vertex 9.53911 11.6134 0
      vertex 8.52311 12.1497 0
    endloop
  endfacet
  facet normal 0.857493 0.514496 0
    outer loop
      vertex 7.93044 13.1374 1
      vertex 8.52311 12.1497 1
      vertex 8.52311 12.1497 0
    endloop
  endfacet
  facet normal 0.857493 0.514496 0
    outer loop
      vertex 7.93044 13.1374 0
      vertex 7.93044 13.1374 1
      vertex 8.52311 12.1497 0
    endloop
  endfacet
  facet normal 1 0 0
    outer loop
      vertex 7.93044 14.2663 0
      vertex 7.93044 14.2663 1
      vertex 7.93044 13.1374 1
    endloop
  endfacet
  facet normal 1 0 0
    outer loop
      vertex 7.93044 13.1374 0
      vertex 7.93044 14.2663 0
      vertex 7.93044 13.1374 1
    endloop
  endfacet
  facet normal 0.989949 -0.141421 0
    outer loop
      vertex 8.18444 16.0443 0
      vertex 8.18444 16.0443 1
      vertex 7.93044 14.2663 1
    endloop
  endfacet
  facet normal 0.989949 -0.141421 0
    outer loop
      vertex 7.93044 14.2663 0
      vertex 8.18444 16.0443 0
      vertex 7.93044 14.2663 1
    endloop
  endfacet
  facet normal 0.403258 0.915086 0
    outer loop
      vertex 8.18444 16.0443 1
      vertex 8.18444 16.0443 0
      vertex 6.51933 16.7781 1
    endloop
  endfacet
  facet normal 0.403258 0.915086 0
    outer loop
      vertex 6.51933 16.7781 1
      vertex 8.18444 16.0443 0
      vertex 6.51933 16.7781 0
    endloop
  endfacet
  facet normal -0.763386 0.645942 0
    outer loop
      vertex 6.51933 16.7781 1
      vertex 6.51933 16.7781 0
      vertex 4.96711 14.9437 1
    endloop
  endfacet
  facet normal -0.763386 0.645942 0
    outer loop
      vertex 4.96711 14.9437 1
      vertex 6.51933 16.7781 0
      vertex 4.96711 14.9437 0
    endloop
  endfacet
  facet normal -0.427006 0.904249 0
    outer loop
      vertex 4.96711 14.9437 1
      vertex 4.96711 14.9437 0
      vertex 3.95111 14.4639 1
    endloop
  endfacet
  facet normal -0.427006 0.904249 0
    outer loop
      vertex 3.95111 14.4639 1
      vertex 4.96711 14.9437 0
      vertex 3.95111 14.4639 0
    endloop
  endfacet
  facet normal 0.0971 0.995275 0
    outer loop
      vertex 3.95111 14.4639 1
      vertex 3.95111 14.4639 0
      vertex 2.794 14.5768 1
    endloop
  endfacet
  facet normal 0.0971 0.995275 0
    outer loop
      vertex 2.794 14.5768 1
      vertex 3.95111 14.4639 0
      vertex 2.794 14.5768 0
    endloop
  endfacet
  facet normal 0.571793 0.820398 0
    outer loop
      vertex 2.794 14.5768 1
      vertex 2.794 14.5768 0
      vertex 1.86267 15.2259 1
    endloop
  endfacet
  facet normal 0.571793 0.820398 0
    outer loop
      vertex 1.86267 15.2259 1
      vertex 2.794 14.5768 0
      vertex 1.86267 15.2259 0
    endloop
  endfacet
  facet normal 0.908677 0.4175 0
    outer loop
      vertex 1.38289 16.2701 1
      vertex 1.86267 15.2259 1
      vertex 1.86267 15.2259 0
    endloop
  endfacet
  facet normal 0.908677 0.4175 0
    outer loop
      vertex 1.38289 16.2701 0
      vertex 1.38289 16.2701 1
      vertex 1.86267 15.2259 0
    endloop
  endfacet
  facet normal 0.962127 0.272603 0
    outer loop
      vertex 0.903111 17.9634 1
      vertex 1.38289 16.2701 1
      vertex 1.38289 16.2701 0
    endloop
  endfacet
  facet normal 0.962127 0.272603 0
    outer loop
      vertex 0.903111 17.9634 0
      vertex 0.903111 17.9634 1
      vertex 1.38289 16.2701 0
    endloop
  endfacet
  facet normal 0 1 0
    outer loop
      vertex 0.903111 17.9634 1
      vertex 0.903111 17.9634 0
      vertex -0.903111 17.9634 1
    endloop
  endfacet
  facet normal 0 1 0
    outer loop
      vertex -0.903111 17.9634 1
      vertex 0.903111 17.9634 0
      vertex -0.903111 17.9634 0
    endloop
  endfacet
  facet normal -0.958798 0.284088 0
    outer loop
      vertex -0.903111 17.9634 1
      vertex -0.903111 17.9634 0
      vertex -1.58044 15.6774 1
    endloop
  endfacet
  facet normal -0.958798 0.284088 0
    outer loop
      vertex -1.58044 15.6774 1
      vertex -0.903111 17.9634 0
      vertex -1.58044 15.6774 0
    endloop
  endfacet
  facet normal -0.755689 0.654931 0
    outer loop
      vertex -1.58044 15.6774 1
      vertex -1.58044 15.6774 0
      vertex -2.31422 14.8308 1
    endloop
  endfacet
  facet normal -0.755689 0.654931 0
    outer loop
      vertex -2.31422 14.8308 1
      vertex -1.58044 15.6774 0
      vertex -2.31422 14.8308 0
    endloop
  endfacet
  facet normal -0.337865 0.941195 0
    outer loop
      vertex -2.31422 14.8308 1
      vertex -2.31422 14.8308 0
      vertex -3.41489 14.4357 1
    endloop
  endfacet
  facet normal -0.337865 0.941195 0
    outer loop
      vertex -3.41489 14.4357 1
      vertex -2.31422 14.8308 0
      vertex -3.41489 14.4357 0
    endloop
  endfacet
  facet normal 0.200944 0.979603 0
    outer loop
      vertex -3.41489 14.4357 1
      vertex -3.41489 14.4357 0
      vertex -4.51556 14.6614 1
    endloop
  endfacet
  facet normal 0.200944 0.979603 0
    outer loop
      vertex -4.51556 14.6614 1
      vertex -3.41489 14.4357 0
      vertex -4.51556 14.6614 0
    endloop
  endfacet
  facet normal 0.642612 0.766192 0
    outer loop
      vertex -4.51556 14.6614 1
      vertex -4.51556 14.6614 0
      vertex -5.39044 15.3952 1
    endloop
  endfacet
  facet normal 0.642612 0.766192 0
    outer loop
      vertex -5.39044 15.3952 1
      vertex -4.51556 14.6614 0
      vertex -5.39044 15.3952 0
    endloop
  endfacet
  facet normal 0.774661 0.632376 0
    outer loop
      vertex -6.51933 16.7781 1
      vertex -5.39044 15.3952 1
      vertex -5.39044 15.3952 0
    endloop
  endfacet
  facet normal 0.774661 0.632376 0
    outer loop
      vertex -6.51933 16.7781 0
      vertex -6.51933 16.7781 1
      vertex -5.39044 15.3952 0
    endloop
  endfacet
  facet normal -0.403258 0.915086 0
    outer loop
      vertex -6.51933 16.7781 1
      vertex -6.51933 16.7781 0
      vertex -8.18444 16.0443 1
    endloop
  endfacet
  facet normal -0.403258 0.915086 0
    outer loop
      vertex -8.18444 16.0443 1
      vertex -6.51933 16.7781 0
      vertex -8.18444 16.0443 0
    endloop
  endfacet
  facet normal -0.989949 -0.141421 0
    outer loop
      vertex -7.84578 13.6737 1
      vertex -8.18444 16.0443 1
      vertex -7.84578 13.6737 0
    endloop
  endfacet
  facet normal -0.989949 -0.141421 0
    outer loop
      vertex -7.84578 13.6737 0
      vertex -8.18444 16.0443 1
      vertex -8.18444 16.0443 0
    endloop
  endfacet
  facet normal -0.955779 0.294086 0
    outer loop
      vertex -7.84578 13.6737 1
      vertex -7.84578 13.6737 0
      vertex -8.18444 12.573 1
    endloop
  endfacet
  facet normal -0.955779 0.294086 0
    outer loop
      vertex -8.18444 12.573 1
      vertex -7.84578 13.6737 0
      vertex -8.18444 12.573 0
    endloop
  endfacet
  facet normal -0.668965 0.743294 0
    outer loop
      vertex -8.18444 12.573 1
      vertex -8.18444 12.573 0
      vertex -9.03111 11.811 1
    endloop
  endfacet
  facet normal -0.668965 0.743294 0
    outer loop
      vertex -9.03111 11.811 1
      vertex -8.18444 12.573 0
      vertex -9.03111 11.811 0
    endloop
  endfacet
  facet normal -0.22486 0.974391 0
    outer loop
      vertex -9.03111 11.811 1
      vertex -9.03111 11.811 0
      vertex -10.1318 11.557 1
    endloop
  endfacet
  facet normal -0.22486 0.974391 0
    outer loop
      vertex -10.1318 11.557 1
      vertex -9.03111 11.811 0
      vertex -10.1318 11.557 0
    endloop
  endfacet
  facet normal 0.27146 0.96245 0
    outer loop
      vertex -10.1318 11.557 1
      vertex -10.1318 11.557 0
      vertex -11.2324 11.8674 1
    endloop
  endfacet
  facet normal 0.27146 0.96245 0
    outer loop
      vertex -11.2324 11.8674 1
      vertex -10.1318 11.557 0
      vertex -11.2324 11.8674 0
    endloop
  endfacet
  facet normal 0.447214 0.894427 0
    outer loop
      vertex -11.2324 11.8674 1
      vertex -11.2324 11.8674 0
      vertex -12.8129 12.6577 1
    endloop
  endfacet
  facet normal 0.447214 0.894427 0
    outer loop
      vertex -12.8129 12.6577 1
      vertex -11.2324 11.8674 0
      vertex -12.8129 12.6577 0
    endloop
  endfacet
  facet normal -0.737805 0.675013 0
    outer loop
      vertex -12.8129 12.6577 1
      vertex -12.8129 12.6577 0
      vertex -14.0264 11.3312 1
    endloop
  endfacet
  facet normal -0.737805 0.675013 0
    outer loop
      vertex -14.0264 11.3312 1
      vertex -12.8129 12.6577 0
      vertex -14.0264 11.3312 0
    endloop
  endfacet
  facet normal -0.856456 -0.51622 0
    outer loop
      vertex -12.7847 9.271 1
      vertex -14.0264 11.3312 1
      vertex -12.7847 9.271 0
    endloop
  endfacet
  facet normal -0.856456 -0.51622 0
    outer loop
      vertex -12.7847 9.271 0
      vertex -14.0264 11.3312 1
      vertex -14.0264 11.3312 0
    endloop
  endfacet
  facet normal -0.992278 -0.124035 0
    outer loop
      vertex -12.6436 8.14211 1
      vertex -12.7847 9.271 1
      vertex -12.6436 8.14211 0
    endloop
  endfacet
  facet normal -0.992278 -0.124035 0
    outer loop
      vertex -12.6436 8.14211 0
      vertex -12.7847 9.271 1
      vertex -12.7847 9.271 0
    endloop
  endfacet
  facet normal -0.917857 0.396911 0
    outer loop
      vertex -12.6436 8.14211 1
      vertex -12.6436 8.14211 0
      vertex -13.0951 7.09789 1
    endloop
  endfacet
  facet normal -0.917857 0.396911 0
    outer loop
      vertex -13.0951 7.09789 1
      vertex -12.6436 8.14211 0
      vertex -13.0951 7.09789 0
    endloop
  endfacet
  facet normal -0.6 0.8 0
    outer loop
      vertex -13.0951 7.09789 1
      vertex -13.0951 7.09789 0
      vertex -13.9982 6.42056 1
    endloop
  endfacet
  facet normal -0.6 0.8 0
    outer loop
      vertex -13.9982 6.42056 1
      vertex -13.0951 7.09789 0
      vertex -13.9982 6.42056 0
    endloop
  endfacet
  facet normal -0.124035 0.992278 0
    outer loop
      vertex -13.9982 6.42056 1
      vertex -13.9982 6.42056 0
      vertex -15.1271 6.27944 1
    endloop
  endfacet
  facet normal -0.124035 0.992278 0
    outer loop
      vertex -15.1271 6.27944 1
      vertex -13.9982 6.42056 0
      vertex -15.1271 6.27944 0
    endloop
  endfacet
  facet normal 0.03173 0.999496 0
    outer loop
      vertex -15.1271 6.27944 1
      vertex -15.1271 6.27944 0
      vertex -16.9051 6.33589 1
    endloop
  endfacet
  facet normal 0.03173 0.999496 0
    outer loop
      vertex -16.9051 6.33589 1
      vertex -15.1271 6.27944 0
      vertex -16.9051 6.33589 0
    endloop
  endfacet
  facet normal -0.95023 0.311551 0
    outer loop
      vertex -16.9051 6.33589 1
      vertex -16.9051 6.33589 0
      vertex -17.4696 4.61433 1
    endloop
  endfacet
  facet normal -0.95023 0.311551 0
    outer loop
      vertex -17.4696 4.61433 1
      vertex -16.9051 6.33589 0
      vertex -17.4696 4.61433 0
    endloop
  endfacet
  facet normal -0.557434 -0.830221 0
    outer loop
      vertex -15.494 3.28789 0
      vertex -15.494 3.28789 1
      vertex -17.4696 4.61433 1
    endloop
  endfacet
  facet normal -0.557434 -0.830221 0
    outer loop
      vertex -17.4696 4.61433 0
      vertex -15.494 3.28789 0
      vertex -17.4696 4.61433 1
    endloop
  endfacet
  facet normal -0.857493 -0.514496 0
    outer loop
      vertex -14.9013 2.30011 1
      vertex -15.494 3.28789 1
      vertex -14.9013 2.30011 0
    endloop
  endfacet
  facet normal -0.857493 -0.514496 0
    outer loop
      vertex -14.9013 2.30011 0
      vertex -15.494 3.28789 1
      vertex -15.494 3.28789 0
    endloop
  endfacet
  facet normal -0.999688 -0.0249922 0
    outer loop
      vertex -14.8731 1.17122 1
      vertex -14.9013 2.30011 1
      vertex -14.8731 1.17122 0
    endloop
  endfacet
  facet normal -0.999688 -0.0249922 0
    outer loop
      vertex -14.8731 1.17122 0
      vertex -14.9013 2.30011 1
      vertex -14.9013 2.30011 0
    endloop
  endfacet
  facet normal -0.874157 0.485643 0
    outer loop
      vertex -14.8731 1.17122 1
      vertex -14.8731 1.17122 0
      vertex -15.4376 0.155222 1
    endloop
  endfacet
  facet normal -0.874157 0.485643 0
    outer loop
      vertex -15.4376 0.155222 1
      vertex -14.8731 1.17122 0
      vertex -15.4376 0.155222 0
    endloop
  endfacet
  facet normal 0.951057 0.309017 0
    outer loop
      vertex -11.7378 -2.49494 1
      vertex -10.9625 -4.88084 1
      vertex -10.9625 -4.88084 0
    endloop
  endfacet
  facet normal 0.951057 0.309017 0
    outer loop
      vertex -11.7378 -2.49494 0
      vertex -11.7378 -2.49494 1
      vertex -10.9625 -4.88084 0
    endloop
  endfacet
  facet normal 0.994522 0.104529 0
    outer loop
      vertex -12 0 1
      vertex -11.7378 -2.49494 1
      vertex -11.7378 -2.49494 0
    endloop
  endfacet
  facet normal 0.994522 0.104529 0
    outer loop
      vertex -12 0 0
      vertex -12 0 1
      vertex -11.7378 -2.49494 0
    endloop
  endfacet
  facet normal 0.994522 -0.104529 0
    outer loop
      vertex -11.7378 2.49494 0
      vertex -11.7378 2.49494 1
      vertex -12 0 1
    endloop
  endfacet
  facet normal 0.994522 -0.104529 0
    outer loop
      vertex -12 0 0
      vertex -11.7378 2.49494 0
      vertex -12 0 1
    endloop
  endfacet
  facet normal 0.951057 -0.309017 0
    outer loop
      vertex -10.9625 4.88084 0
      vertex -10.9625 4.88084 1
      vertex -11.7378 2.49494 1
    endloop
  endfacet
  facet normal 0.951057 -0.309017 0
    outer loop
      vertex -11.7378 2.49494 0
      vertex -10.9625 4.88084 0
      vertex -11.7378 2.49494 1
    endloop
  endfacet
  facet normal 0.866025 -0.5 0
    outer loop
      vertex -9.7082 7.05342 0
      vertex -9.7082 7.05342 1
      vertex -10.9625 4.88084 1
    endloop
  endfacet
  facet normal 0.866025 -0.5 0
    outer loop
      vertex -10.9625 4.88084 0
      vertex -9.7082 7.05342 0
      vertex -10.9625 4.88084 1
    endloop
  endfacet
  facet normal 0.743145 -0.669131 0
    outer loop
      vertex -8.02957 8.91774 0
      vertex -8.02957 8.91774 1
      vertex -9.7082 7.05342 1
    endloop
  endfacet
  facet normal 0.743145 -0.669131 0
    outer loop
      vertex -9.7082 7.05342 0
      vertex -8.02957 8.91774 0
      vertex -9.7082 7.05342 1
    endloop
  endfacet
  facet normal 0.587785 -0.809017 0
    outer loop
      vertex -6 10.3923 0
      vertex -6 10.3923 1
      vertex -8.02957 8.91774 1
    endloop
  endfacet
  facet normal 0.587785 -0.809017 0
    outer loop
      vertex -8.02957 8.91774 0
      vertex -6 10.3923 0
      vertex -8.02957 8.91774 1
    endloop
  endfacet
  facet normal 0.406737 -0.913546 0
    outer loop
      vertex -3.7082 11.4127 0
      vertex -3.7082 11.4127 1
      vertex -6 10.3923 1
    endloop
  endfacet
  facet normal 0.406737 -0.913546 0
    outer loop
      vertex -6 10.3923 0
      vertex -3.7082 11.4127 0
      vertex -6 10.3923 1
    endloop
  endfacet
  facet normal 0.207912 -0.978148 0
    outer loop
      vertex -1.25434 11.9343 0
      vertex -1.25434 11.9343 1
      vertex -3.7082 11.4127 1
    endloop
  endfacet
  facet normal 0.207912 -0.978148 0
    outer loop
      vertex -3.7082 11.4127 0
      vertex -1.25434 11.9343 0
      vertex -3.7082 11.4127 1
    endloop
  endfacet
  facet normal 0 -1 0
    outer loop
      vertex 1.25434 11.9343 0
      vertex 1.25434 11.9343 1
      vertex -1.25434 11.9343 1
    endloop
  endfacet
  facet normal 0 -1 0
    outer loop
      vertex -1.25434 11.9343 0
      vertex 1.25434 11.9343 0
      vertex -1.25434 11.9343 1
    endloop
  endfacet
  facet normal -0.207912 -0.978148 0
    outer loop
      vertex 3.7082 11.4127 0
      vertex 3.7082 11.4127 1
      vertex 1.25434 11.9343 1
    endloop
  endfacet
  facet normal -0.207912 -0.978148 0
    outer loop
      vertex 1.25434 11.9343 0
      vertex 3.7082 11.4127 0
      vertex 1.25434 11.9343 1
    endloop
  endfacet
  facet normal -0.406737 -0.913546 0
    outer loop
      vertex 6 10.3923 0
      vertex 6 10.3923 1
      vertex 3.7082 11.4127 1
    endloop
  endfacet
  facet normal -0.406737 -0.913546 0
    outer loop
      vertex 3.7082 11.4127 0
      vertex 6 10.3923 0
      vertex 3.7082 11.4127 1
    endloop
  endfacet
  facet normal -0.587785 -0.809017 0
    outer loop
      vertex 8.02957 8.91774 0
      vertex 8.02957 8.91774 1
      vertex 6 10.3923 1
    endloop
  endfacet
  facet normal -0.587785 -0.809017 0
    outer loop
      vertex 6 10.3923 0
      vertex 8.02957 8.91774 0
      vertex 6 10.3923 1
    endloop
  endfacet
  facet normal -0.743145 -0.669131 0
    outer loop
      vertex 9.7082 7.05342 1
      vertex 8.02957 8.91774 1
      vertex 9.7082 7.05342 0
    endloop
  endfacet
  facet normal -0.743145 -0.669131 0
    outer loop
      vertex 9.7082 7.05342 0
      vertex 8.02957 8.91774 1
      vertex 8.02957 8.91774 0
    endloop
  endfacet
  facet normal -0.866025 -0.5 0
    outer loop
      vertex 10.9625 4.88084 1
      vertex 9.7082 7.05342 1
      vertex 10.9625 4.88084 0
    endloop
  endfacet
  facet normal -0.866025 -0.5 0
    outer loop
      vertex 10.9625 4.88084 0
      vertex 9.7082 7.05342 1
      vertex 9.7082 7.05342 0
    endloop
  endfacet
  facet normal -0.951057 -0.309017 0
    outer loop
      vertex 11.7378 2.49494 1
      vertex 10.9625 4.88084 1
      vertex 11.7378 2.49494 0
    endloop
  endfacet
  facet normal -0.951057 -0.309017 0
    outer loop
      vertex 11.7378 2.49494 0
      vertex 10.9625 4.88084 1
      vertex 10.9625 4.88084 0
    endloop
  endfacet
  facet normal -0.994522 -0.104529 0
    outer loop
      vertex 12 0 1
      vertex 11.7378 2.49494 1
      vertex 12 0 0
    endloop
  endfacet
  facet normal -0.994522 -0.104529 0
    outer loop
      vertex 12 0 0
      vertex 11.7378 2.49494 1
      vertex 11.7378 2.49494 0
    endloop
  endfacet
  facet normal -0.994522 0.104529 0
    outer loop
      vertex 12 0 1
      vertex 12 0 0
      vertex 11.7378 -2.49494 1
    endloop
  endfacet
  facet normal -0.994522 0.104529 0
    outer loop
      vertex 11.7378 -2.49494 1
      vertex 12 0 0
      vertex 11.7378 -2.49494 0
    endloop
  endfacet
  facet normal -0.951057 0.309017 0
    outer loop
      vertex 11.7378 -2.49494 1
      vertex 11.7378 -2.49494 0
      vertex 10.9625 -4.88084 1
    endloop
  endfacet
  facet normal -0.951057 0.309017 0
    outer loop
      vertex 10.9625 -4.88084 1
      vertex 11.7378 -2.49494 0
      vertex 10.9625 -4.88084 0
    endloop
  endfacet
  facet normal -0.866025 0.5 0
    outer loop
      vertex 10.9625 -4.88084 1
      vertex 10.9625 -4.88084 0
      vertex 9.7082 -7.05342 1
    endloop
  endfacet
  facet normal -0.866025 0.5 0
    outer loop
      vertex 9.7082 -7.05342 1
      vertex 10.9625 -4.88084 0
      vertex 9.7082 -7.05342 0
    endloop
  endfacet
  facet normal -0.743145 0.669131 0
    outer loop
      vertex 9.7082 -7.05342 1
      vertex 9.7082 -7.05342 0
      vertex 8.02957 -8.91774 1
    endloop
  endfacet
  facet normal -0.743145 0.669131 0
    outer loop
      vertex 8.02957 -8.91774 1
      vertex 9.7082 -7.05342 0
      vertex 8.02957 -8.91774 0
    endloop
  endfacet
  facet normal -0.587785 0.809017 0
    outer loop
      vertex 8.02957 -8.91774 1
      vertex 8.02957 -8.91774 0
      vertex 6 -10.3923 1
    endloop
  endfacet
  facet normal -0.587785 0.809017 0
    outer loop
      vertex 6 -10.3923 1
      vertex 8.02957 -8.91774 0
      vertex 6 -10.3923 0
    endloop
  endfacet
  facet normal -0.406737 0.913546 0
    outer loop
      vertex 6 -10.3923 1
      vertex 6 -10.3923 0
      vertex 3.7082 -11.4127 1
    endloop
  endfacet
  facet normal -0.406737 0.913546 0
    outer loop
      vertex 3.7082 -11.4127 1
      vertex 6 -10.3923 0
      vertex 3.7082 -11.4127 0
    endloop
  endfacet
  facet normal -0.207912 0.978148 0
    outer loop
      vertex 3.7082 -11.4127 1
      vertex 3.7082 -11.4127 0
      vertex 1.25434 -11.9343 1
    endloop
  endfacet
  facet normal -0.207912 0.978148 0
    outer loop
      vertex 1.25434 -11.9343 1
      vertex 3.7082 -11.4127 0
      vertex 1.25434 -11.9343 0
    endloop
  endfacet
  facet normal 0 1 0
    outer loop
      vertex 1.25434 -11.9343 1
      vertex 1.25434 -11.9343 0
      vertex -1.25434 -11.9343 1
    endloop
  endfacet
  facet normal 0 1 0
    outer loop
      vertex -1.25434 -11.9343 1
      vertex 1.25434 -11.9343 0
      vertex -1.25434 -11.9343 0
    endloop
  endfacet
  facet normal 0.207912 0.978148 0
    outer loop
      vertex -1.25434 -11.9343 1
      vertex -1.25434 -11.9343 0
      vertex -3.7082 -11.4127 1
    endloop
  endfacet
  facet normal 0.207912 0.978148 0
    outer loop
      vertex -3.7082 -11.4127 1
      vertex -1.25434 -11.9343 0
      vertex -3.7082 -11.4127 0
    endloop
  endfacet
  facet normal 0.406737 0.913546 0
    outer loop
      vertex -3.7082 -11.4127 1
      vertex -3.7082 -11.4127 0
      vertex -6 -10.3923 1
    endloop
  endfacet
  facet normal 0.406737 0.913546 0
    outer loop
      vertex -6 -10.3923 1
      vertex -3.7082 -11.4127 0
      vertex -6 -10.3923 0
    endloop
  endfacet
  facet normal 0.587785 0.809017 0
    outer loop
      vertex -6 -10.3923 1
      vertex -6 -10.3923 0
      vertex -8.02957 -8.91774 1
    endloop
  endfacet
  facet normal 0.587785 0.809017 0
    outer loop
      vertex -8.02957 -8.91774 1
      vertex -6 -10.3923 0
      vertex -8.02957 -8.91774 0
    endloop
  endfacet
  facet normal 0.743145 0.669131 0
    outer loop
      vertex -9.7082 -7.05342 1
      vertex -8.02957 -8.91774 1
      vertex -8.02957 -8.91774 0
    endloop
  endfacet
  facet normal 0.743145 0.669131 0
    outer loop
      vertex -9.7082 -7.05342 0
      vertex -9.7082 -7.05342 1
      vertex -8.02957 -8.91774 0
    endloop
  endfacet
  facet normal 0.866025 0.5 0
    outer loop
      vertex -10.9625 -4.88084 1
      vertex -9.7082 -7.05342 1
      vertex -9.7082 -7.05342 0
    endloop
  endfacet
  facet normal 0.866025 0.5 0
    outer loop
      vertex -10.9625 -4.88084 0
      vertex -10.9625 -4.88084 1
      vertex -9.7082 -7.05342 0
    endloop
  endfacet
endsolid OpenSCAD_Model
